<svg width="53" height="22" viewBox="0 0 53 22" fill="none" xmlns="http://www.w3.org/2000/svg">
<path d="M10.2646 4.21143C10.4293 4.21143 10.7101 4.23763 11.1069 4.29004C11.5037 4.34245 11.938 4.49219 12.4096 4.73926C12.8888 4.97884 13.323 5.37939 13.7124 5.94092C13.6899 5.96338 13.5813 6.04574 13.3867 6.18799C13.192 6.32275 12.9749 6.5249 12.7353 6.79443C12.4957 7.05648 12.2861 7.39339 12.1064 7.80518C11.9267 8.20947 11.8369 8.69238 11.8369 9.25391C11.8369 9.89779 11.9492 10.4443 12.1738 10.8936C12.4059 11.3428 12.6717 11.7059 12.9712 11.9829C13.2781 12.2524 13.5477 12.4508 13.7798 12.5781C14.0193 12.7054 14.1466 12.7728 14.1616 12.7803C14.1541 12.8102 14.0568 13.076 13.8696 13.5776C13.6899 14.0793 13.3904 14.637 12.9712 15.251C12.6043 15.7826 12.2075 16.2729 11.7807 16.7222C11.3615 17.1714 10.8561 17.396 10.2646 17.396C9.8678 17.396 9.54212 17.3398 9.28756 17.2275C9.03301 17.1077 8.77096 16.9917 8.50143 16.8794C8.2319 16.7596 7.86878 16.6997 7.41208 16.6997C6.97034 16.6997 6.59974 16.7596 6.30026 16.8794C6.00827 16.9992 5.7275 17.119 5.45797 17.2388C5.19593 17.3586 4.88522 17.4185 4.52584 17.4185C3.9793 17.4185 3.50013 17.2013 3.08834 16.7671C2.67656 16.3328 2.25355 15.8125 1.8193 15.2061C1.31767 14.4873 0.887173 13.6113 0.527798 12.5781C0.17591 11.5374 -3.43323e-05 10.4893 -3.43323e-05 9.43359C-3.43323e-05 8.30306 0.213345 7.35596 0.640102 6.59229C1.06686 5.82113 1.61341 5.24089 2.27975 4.85156C2.95358 4.45475 3.64987 4.25635 4.36862 4.25635C4.75045 4.25635 5.10983 4.31999 5.44674 4.44727C5.78366 4.56706 6.09811 4.69059 6.3901 4.81787C6.68958 4.94515 6.95911 5.00879 7.1987 5.00879C7.43079 5.00879 7.70032 4.94141 8.00729 4.80664C8.31426 4.67188 8.65866 4.54085 9.04049 4.41357C9.42233 4.27881 9.83037 4.21143 10.2646 4.21143ZM9.64694 2.78516C9.35495 3.13704 8.98808 3.43278 8.54635 3.67236C8.10462 3.90446 7.68535 4.02051 7.28854 4.02051C7.20618 4.02051 7.12757 4.01302 7.0527 3.99805C7.04521 3.97559 7.03773 3.93441 7.03024 3.87451C7.02275 3.81462 7.01901 3.75098 7.01901 3.68359C7.01901 3.23438 7.11634 2.80013 7.311 2.38086C7.50566 1.9541 7.72653 1.60221 7.9736 1.3252C8.28805 0.950846 8.68486 0.640137 9.16403 0.393066C9.64319 0.145996 10.0999 0.014974 10.5341 0C10.5566 0.0973307 10.5678 0.213379 10.5678 0.348145C10.5678 0.797363 10.4817 1.23535 10.3095 1.66211C10.1373 2.08138 9.91647 2.45573 9.64694 2.78516ZM18.0136 11.938V9.60205H22.1689C23.2096 9.60205 24.0182 9.33626 24.5947 8.80469C25.1712 8.26562 25.4594 7.50944 25.4594 6.53613V6.51367C25.4594 5.53288 25.1712 4.77669 24.5947 4.24512C24.0182 3.71354 23.2096 3.44775 22.1689 3.44775H18.0136V1.08936H22.8764C23.977 1.08936 24.9391 1.31396 25.7627 1.76318C26.5862 2.2124 27.2301 2.84505 27.6943 3.66113C28.1585 4.46973 28.3906 5.41683 28.3906 6.50244V6.5249C28.3906 7.60303 28.1585 8.55013 27.6943 9.36621C27.2301 10.1748 26.5862 10.8075 25.7627 11.2642C24.9391 11.7134 23.977 11.938 22.8764 11.938H18.0136ZM16.5649 17.2949V1.08936H19.4511V17.2949H16.5649ZM33.3095 17.4971C32.5234 17.4971 31.8271 17.3473 31.2207 17.0479C30.6217 16.7409 30.15 16.3179 29.8056 15.7788C29.4687 15.2323 29.3003 14.5996 29.3003 13.8809V13.8584C29.3003 13.1396 29.4762 12.5257 29.8281 12.0166C30.1875 11.5 30.7078 11.0957 31.3891 10.8037C32.0704 10.5042 32.8978 10.3245 33.8711 10.2646L38.4194 9.98389V11.8369L34.2641 12.0952C33.5454 12.1401 32.9988 12.3049 32.6245 12.5894C32.2576 12.8739 32.0742 13.2557 32.0742 13.7349V13.7573C32.0742 14.259 32.2651 14.652 32.6469 14.9365C33.0288 15.221 33.5267 15.3633 34.1406 15.3633C34.6871 15.3633 35.1738 15.2547 35.6006 15.0376C36.0348 14.813 36.3755 14.5135 36.6225 14.1392C36.8696 13.7573 36.9931 13.3306 36.9931 12.8589V9.17529C36.9931 8.56885 36.8022 8.09717 36.4204 7.76025C36.0385 7.42334 35.4845 7.25488 34.7583 7.25488C34.1069 7.25488 33.5791 7.3859 33.1748 7.64795C32.778 7.90251 32.5271 8.24316 32.4223 8.66992L32.3999 8.75977H29.7944L29.8056 8.63623C29.873 7.93245 30.1201 7.31104 30.5468 6.77197C30.9736 6.23291 31.5501 5.8099 32.2763 5.50293C33.0101 5.18848 33.8748 5.03125 34.8706 5.03125C35.8888 5.03125 36.761 5.19596 37.4873 5.52539C38.221 5.84733 38.7863 6.31152 39.1831 6.91797C39.5799 7.51693 39.7783 8.22445 39.7783 9.04053V17.2949H36.9931V15.5093H36.8921C36.6674 15.9211 36.3755 16.2767 36.0161 16.5762C35.6567 16.8682 35.2487 17.0965 34.792 17.2612C34.3353 17.4185 33.8411 17.4971 33.3095 17.4971ZM43.7426 21.3716C43.5105 21.3716 43.2747 21.3604 43.0351 21.3379C42.803 21.3154 42.6009 21.293 42.4287 21.2705V19.1367C42.5335 19.1517 42.6645 19.1667 42.8217 19.1816C42.979 19.1966 43.1474 19.2041 43.3271 19.2041C43.8737 19.2041 44.3117 19.103 44.6411 18.9009C44.9705 18.6987 45.2176 18.3394 45.3823 17.8228L45.5507 17.3062L41.2382 5.26709H44.2817L47.3252 15.6216L46.7973 14.813H47.5161L46.977 15.6216L50.0317 5.26709H52.9741L48.6504 17.6543C48.3359 18.5752 47.9578 19.3052 47.5161 19.8442C47.0818 20.3908 46.5577 20.7801 45.9438 21.0122C45.3299 21.2518 44.5962 21.3716 43.7426 21.3716Z" fill="white"/>
</svg>
