<svg width="18" height="24" viewBox="0 0 18 24" fill="none" xmlns="http://www.w3.org/2000/svg">
<path d="M15.3576 20.2354C15.1728 21.3892 14.7156 22.7108 13.7081 23.3562C12.0457 24.4231 8.6276 22.7643 9.18851 21.9043C9.34594 21.6618 9.63078 21.2936 9.93011 20.8981C10.3475 20.3427 9.58282 19.4369 8.93408 19.024C8.41364 18.6925 7.49102 18.3198 6.74538 18.8066C5.32511 19.737 6.31749 22.6454 2.87361 22.0635C2.21749 21.9528 1.43298 21.8859 1.02785 21.6179C0.553925 21.3063 -0.0692998 20.2209 0.00627937 19.7058C0.386153 17.1118 0.916396 14.7105 1.45675 12.1386C1.60102 11.4468 1.54267 10.6837 1.6097 9.96731C1.89027 6.90121 2.79477 4.00518 3.94024 1.16045C4.3155 0.229117 5.27751 -0.00857961 6.2805 0.000180499L8.48572 0.0180158C9.33405 0.419953 9.8499 3.11493 11.1683 2.84766C13.0727 2.46101 11.9977 0.53142 13.1305 0.566939L15.6167 0.646817C16.5155 0.67625 17.8345 1.36634 17.8972 2.29184C17.9922 3.69546 17.7089 5.03642 17.5788 6.43213C17.3154 9.26652 17.2169 12.0556 16.5238 14.8293C16.0726 16.6327 15.6732 18.288 15.3617 20.2363L15.3576 20.2354Z" fill="#EDEDF4"/>
</svg>
