<svg width="225" height="176" viewBox="0 0 225 176" fill="none" xmlns="http://www.w3.org/2000/svg">
<g clip-path="url(#clip0_63_868)">
<g opacity="0.32">
<g filter="url(#filter0_f_63_868)">
<path d="M29.3463 126.772C21.2635 105.655 28.4188 81.8601 41.5925 64.481C54.7314 46.8021 73.5331 33.9213 93.9737 26.0826C132.979 10.8027 191.448 15.0568 209.302 59.0065C225.202 103.849 184.23 146.278 144.611 160.554C105.46 175.806 46.9625 170.764 29.3463 126.772ZM31.9825 125.782C44.0055 156.851 81.602 166.635 111.939 162.834C152.178 158.162 196.588 132.184 207.488 91.0517C212.893 70.3112 204.608 48.0784 186.936 35.9158C169.564 23.6347 147.178 20.3151 126.312 22.4631C94.8246 25.9501 63.8254 41.216 44.1799 66.4268C31.2711 82.8992 24.2414 105.606 31.9825 125.775V125.782Z" fill="#8AAFD3"/>
</g>
</g>
<g opacity="0.32">
<g filter="url(#filter1_f_63_868)">
<path d="M222.169 57.6187C237.33 109.205 188.715 154.368 143.335 168.574C108.117 179.879 65.9803 178.937 35.7483 155.54C25.7965 147.743 17.9787 137.059 14.0455 124.987C-1.55524 73.1426 47.1786 27.1705 92.9974 13.0622C138.3 -2.16887 204.504 6.695 222.169 57.6256V57.6187ZM219.128 58.609C211.603 35.2323 189.161 20.329 166.042 15.0358C142.603 9.4497 117.755 11.7441 94.957 19.0947C56.8375 31.3897 16.2074 63.1141 15.231 106.241C14.8754 138.189 41.1043 160.84 70.5064 167.758C93.9737 173.623 119.01 171.608 141.94 164.25C175.792 153.287 208.744 129.22 219.414 94.0086C222.761 82.5017 222.824 70.0392 219.128 58.6229V58.609Z" fill="#BA274A"/>
</g>
</g>
<path d="M131.208 162.925C130.671 162.032 130.392 159.096 131.194 158.762C132.156 158.357 133.746 158.092 135.392 157.848C140.978 160.91 146.697 158.504 149.089 152.827C153.671 141.954 157.36 130.817 159.598 118.543C151.962 126.744 144.095 132.756 133.286 132.588C129.715 137.317 123.536 137.177 118.829 134.13C113.619 130.761 110.397 125.761 110.125 119.464C109.33 101.276 110.111 109.365 106.513 92.4256C103.835 79.8446 94.2109 113.968 96.324 134.151C97.9977 150.149 109.951 147.708 109.156 155.847C109.01 157.318 106.241 159.564 104.616 159.592C95.2848 159.766 88.9176 153.085 85.9677 144.43C80.0259 126.974 85.0192 96.0939 96.5262 81.0232C91.0517 72.6685 97.391 52.7091 107.468 53.518C111.541 53.8458 114.317 57.2909 115.216 60.9732C117.064 68.5538 114.561 75.0257 110.16 81.5672C111.841 92.5023 121.507 95.4593 122.985 112.036C123.264 115.182 122.964 119.359 125.482 121.842C148.691 119.296 151.258 106.534 160.91 88.3877L156.865 84.5451C152.764 77.4317 160.735 59.2715 165.994 55.8125C169.202 53.7063 172.249 52.7091 175.394 53.532C178.581 54.3689 181.085 57.2282 182.466 60.8058C186.532 71.3574 181.134 82.0972 172.27 88.9596C174.376 110.948 168.504 134.485 160.847 154.947C158.999 159.877 155.693 164.041 151.704 167.082C144.793 172.347 135.225 169.543 131.215 162.918L131.208 162.925Z" fill="#BA274A"/>
<path d="M66.629 104.965C67.5356 123.132 81.8531 117.225 75.8137 131.396C61.3497 132.372 54.6129 117.42 53.9852 104.714C53.1484 87.6275 56.7539 66.4477 66.9916 52.716C61.008 45.3515 67.975 24.7784 77.4665 25.3712C82.6202 25.692 84.9704 29.7996 85.9119 34.249C87.3974 41.2648 84.3288 47.7436 80.7024 53.6993C79.0984 57.0607 85.4307 61.5729 85.3052 64.5089L84.5311 82.9759C84.3707 86.7767 82.4877 91.0726 81.2673 94.5735C78.5335 82.9619 81.8949 74.105 74.8931 60.5547C67.9122 74.6769 65.8758 89.9149 66.629 104.958V104.965Z" fill="#BA274A"/>
<path d="M130.392 89.7127L122.574 97.7815L118.383 87.9552C117.058 84.8449 118.473 83.7709 120.091 81.1626C122.218 77.7175 131.556 61.9006 130.873 59.5923C130.754 59.1878 120.991 55.6032 129.694 37.5756C131.64 33.5446 133.216 29.5416 136.85 27.3378C140.225 25.2945 142.931 24.5273 146.376 25.5107C149.159 26.3057 151.488 29.0674 152.715 32.4009C156.579 42.9176 152.039 54.1944 142.75 60.5965C143.858 75.4928 142.303 89.4198 138.558 103.681C137.638 107.175 134.116 110.356 130.454 110.321C128.85 109.316 126.556 105.383 127.03 103.451L130.392 89.7127Z" fill="#BA274A"/>
<path d="M118.306 140.567C116.325 142.219 110.997 141.682 109.735 138.607L106.583 130.922C113.487 130.043 112.036 133.969 118.306 140.567Z" fill="#BA274A"/>
<path d="M46.551 145.267L48.5107 150.477C48.964 151.669 50.2681 152.304 51.4885 151.906L56.7817 150.191L53.9294 154.975C53.2739 156.07 53.6016 157.492 54.6617 158.197L59.3063 161.265L53.7899 162.018C52.5276 162.193 51.621 163.33 51.7326 164.599L52.2278 170.143L48.2038 166.3C47.2763 165.422 45.8257 165.422 44.8982 166.3L40.8742 170.143L41.3693 164.599C41.4809 163.33 40.5743 162.193 39.312 162.018L33.7957 161.265L38.4403 158.197C39.5073 157.492 39.8281 156.077 39.1726 154.975L36.3202 150.191L41.6134 151.906C42.8269 152.297 44.138 151.669 44.5913 150.477L46.551 145.267Z" fill="#8AAFD3"/>
<path d="M112.022 0L113.982 5.20953C114.435 6.40207 115.739 7.0367 116.96 6.63918L122.253 4.9236L119.401 9.70772C118.745 10.8026 119.073 12.2253 120.133 12.9297L124.778 15.9982L119.261 16.7514C117.999 16.9257 117.092 18.0625 117.204 19.3317L117.699 24.876L113.675 21.0334C112.748 20.1547 111.297 20.1547 110.369 21.0334L106.346 24.876L106.841 19.3317C106.952 18.0625 106.046 16.9257 104.783 16.7514L99.267 15.9982L103.912 12.9297C104.979 12.2253 105.299 10.8096 104.644 9.70772L101.792 4.9236L107.085 6.63918C108.298 7.02972 109.609 6.40207 110.063 5.20953L112.022 0Z" fill="#BA274A"/>
<path d="M204.106 121.27L206.589 127.163C207.007 128.153 208.025 128.739 209.092 128.606L215.439 127.811L211.575 132.909C210.927 133.767 210.927 134.946 211.575 135.796L215.439 140.894L209.092 140.099C208.025 139.967 207.007 140.56 206.589 141.543L204.106 147.436L201.623 141.543C201.205 140.553 200.187 139.967 199.12 140.099L192.773 140.894L196.637 135.796C197.286 134.939 197.286 133.76 196.637 132.909L192.773 127.811L199.12 128.606C200.187 128.739 201.205 128.146 201.623 127.163L204.106 121.27Z" fill="#8AAFD3"/>
<path d="M13.0902 97.2375L15.4334 101.701C16.8422 104.379 19.032 106.569 21.71 107.977L26.1733 110.321L21.71 112.664C19.032 114.073 16.8422 116.262 15.4334 118.94L13.0902 123.404L10.7469 118.94C9.3382 116.262 7.14839 114.073 4.4704 112.664L0.00708008 110.321L4.4704 107.977C7.14839 106.569 9.3382 104.379 10.7469 101.701L13.0902 97.2375Z" fill="#BA274A"/>
<path d="M15.0813 154.97L15.6965 158.19C16.0674 160.122 17.0164 161.898 18.4167 163.28L20.7513 165.581L17.5318 166.196C15.5995 166.567 13.8235 167.516 12.4413 168.917L10.1406 171.251L9.52534 168.032C9.15448 166.099 8.20545 164.323 6.80519 162.941L4.47054 160.64L7.6901 160.025C9.62236 159.654 11.3984 158.705 12.7806 157.305L15.0813 154.97Z" fill="#BA274A"/>
<path d="M210.997 151.16L212.637 152.908C213.622 153.957 214.904 154.683 216.31 154.989L218.653 155.497L216.904 157.137C215.855 158.122 215.129 159.404 214.823 160.81L214.316 163.153L212.675 161.404C211.69 160.355 210.409 159.629 209.002 159.323L206.66 158.816L208.408 157.175C209.457 156.19 210.183 154.909 210.489 153.502L210.997 151.16Z" fill="#BA274A"/>
</g>
<defs>
<filter id="filter0_f_63_868" x="23.1444" y="15.2712" width="192.46" height="155.872" filterUnits="userSpaceOnUse" color-interpolation-filters="sRGB">
<feFlood flood-opacity="0" result="BackgroundImageFix"/>
<feBlend mode="normal" in="SourceGraphic" in2="BackgroundImageFix" result="shape"/>
<feGaussianBlur stdDeviation="1.39479" result="effect1_foregroundBlur_63_868"/>
</filter>
<filter id="filter1_f_63_868" x="8.28562" y="3.53739" width="219.5" height="174.861" filterUnits="userSpaceOnUse" color-interpolation-filters="sRGB">
<feFlood flood-opacity="0" result="BackgroundImageFix"/>
<feBlend mode="normal" in="SourceGraphic" in2="BackgroundImageFix" result="shape"/>
<feGaussianBlur stdDeviation="1.39479" result="effect1_foregroundBlur_63_868"/>
</filter>
<clipPath id="clip0_63_868">
<rect width="225" height="175.611" fill="white"/>
</clipPath>
</defs>
</svg>
