<svg width="10" height="10" viewBox="0 0 10 10" fill="none" xmlns="http://www.w3.org/2000/svg">
<path d="M8.58781 9.14058C8.74696 9.20424 8.84775 9.21485 8.91141 9.21485C8.97507 9.21485 9.10239 9.21485 9.17666 8.8435C9.37826 7.83554 8.66738 5.87798 7.41539 5.35809L7.37826 5.34217L7.34112 5.32095C7.34112 5.32095 7.30399 5.29973 7.28807 5.29442C6.96446 5.13527 6.80001 4.89124 6.7947 4.56763V4.40848L6.86897 4.26525L7.46844 3.15119L8.51884 1.19893C8.66208 0.944292 8.6833 0.901852 8.67799 0.541109C8.65147 0.206892 8.59311 0.0583504 8.56658 -0.00531006C8.42865 0.00530002 8.17932 0.0954857 7.9565 0.175061C7.59046 0.307687 7.17136 0.461533 6.72574 0.488059H6.66208H6.60372C6.32255 0.450923 6.03078 0.413788 5.79205 0.413788C5.36234 0.413788 5.12892 0.445618 4.98038 1.1618C4.87958 1.70822 4.3703 2.5358 3.61698 2.5358C3.43131 2.5358 3.25093 2.48275 3.09178 2.38196L3.06526 2.36604L3.03873 2.35013C2.80001 2.16976 2.57189 1.94164 2.34908 1.72413C1.90876 1.28912 1.45253 0.843496 0.985683 0.801056C0.980378 0.801056 0.969767 0.801056 0.959157 0.801056C0.465789 0.806361 0.227062 1.17241 0.126266 1.38992C-0.0541053 1.78779 -0.0753254 2.37665 0.290722 2.80636L0.306637 2.82228L0.317248 2.83819L0.969767 3.70822C1.45783 4.36074 2.08383 5.18832 2.40743 5.62334L2.42865 5.65517L2.44987 5.687C2.57719 5.90981 2.5825 6.18037 2.46048 6.40848C2.39682 6.5358 2.22706 6.83819 2.00956 7.21485C1.77613 7.62864 1.47375 8.15915 1.26685 8.54641C1.40478 8.7427 1.60107 9.00795 1.77083 9.23076C1.96181 9.49071 2.1634 9.76127 2.33316 10C3.05465 9.49602 3.50027 9.07161 3.83979 8.74801C4.33316 8.28116 4.72043 7.90981 5.39417 7.90981C6.06791 7.90981 6.85836 8.28647 8.59311 9.14058H8.58781Z" fill="black"/>
</svg>
