<svg width="15" height="12" viewBox="0 0 15 12" fill="none" xmlns="http://www.w3.org/2000/svg">
<path d="M7.37934 7.83436C6.07896 8.38275 4.18948 9.17003 2.89453 9.73199C2.38958 9.94917 1.97965 10.3265 1.75161 10.8396C1.52899 11.2604 1.15978 11.7029 0.717273 11.9581C0.280194 12.1671 0.144457 11.5482 0.0548692 11.1111C-0.0971584 10.2098 0.054868 8.80082 0.660263 7.88594C1.68102 6.28694 4.34965 3.86807 6.46989 3.82464C6.68707 3.81649 6.57305 3.5423 6.58391 3.36855C6.57576 3.21924 6.56762 3.07264 6.55948 2.92604C6.50247 1.67453 6.32057 -0.206809 8.14762 0.0185175C9.78192 0.398586 11.7773 1.9623 13.0912 3.08893C13.3084 3.30068 13.7265 3.23282 13.96 3.39842C14.2667 3.73776 14.3292 4.42189 14.0143 4.78838C13.7645 5.15759 13.3003 5.86886 13.0125 6.2978C12.4315 7.15567 11.7067 7.96196 11.0171 8.75739C10.3927 9.43608 9.63532 10.5383 8.59827 10.3618C8.23449 10.1935 8.04174 9.81887 7.92501 9.42794C7.76484 8.95557 7.52051 8.23072 7.38205 7.83436H7.37934Z" fill="#BA274A"/>
</svg>
