<svg width="13" height="8" viewBox="0 0 13 8" fill="none" xmlns="http://www.w3.org/2000/svg">
<path d="M12.3409 3.12196C11.7145 2.47473 9.37251 0.098944 8.71488 0.166527C7.72973 0.707187 6.67181 -0.662659 6.28451 0.449853C5.81923 1.78071 8.51733 2.34736 8.43415 3.10637C8.41856 3.25453 8.03126 3.3429 7.8623 3.3455L3.78396 3.42868C3.30048 3.43908 2.81441 3.60804 2.33873 3.69381C1.60052 3.82898 0.844116 3.78999 0.0981093 4.00833C-0.0916416 4.25787 0.0227288 4.84531 0.196884 5.05846C0.394433 5.3054 0.763537 5.41457 1.12484 5.37818C2.97556 5.19103 4.72491 5.09485 6.63802 5.04026C7.27745 5.02207 8.01046 4.79853 8.47834 5.24821C8.42375 6.31134 6.95513 6.89878 7.24366 7.57461C7.62316 8.46358 9.21395 7.69938 9.37511 7.598L11.6781 6.15278C12.697 5.51334 13.2403 4.04732 12.3461 3.12456L12.3409 3.12196Z" fill="#EDEDF4"/>
</svg>
