<svg width="10" height="12" viewBox="0 0 10 12" fill="none" xmlns="http://www.w3.org/2000/svg">
<path d="M7.12969 11.558C6.56323 12.3291 5.4157 11.9271 4.70671 11.5835C2.9379 10.7101 1.52359 9.06189 0.511275 7.4283C0.189673 6.90204 -0.161165 6.2698 0.0800362 5.64122C0.631875 4.70565 1.73921 3.89799 2.35683 3.27672C2.95983 2.74681 3.4532 2.33749 4.0964 1.88433C6.78981 -0.00507977 7.45129 0.97069 8.23702 0.130141C8.51842 -0.147606 9.23106 0.0533937 9.34435 0.411541C9.35531 0.470014 9.33339 0.528487 9.29319 0.583306C7.65594 2.39597 5.61304 3.8249 3.62131 5.17343C3.36549 5.35982 2.72959 5.73624 2.60899 5.88242C2.60534 5.91166 2.64188 5.93724 2.70036 5.97013C4.14025 6.60968 4.96984 7.84126 5.99312 8.93398C6.53765 9.58449 7.69249 10.542 7.16623 11.5141L7.13334 11.5653L7.12969 11.558Z" fill="#EDEDF4"/>
</svg>
