<svg width="62" height="24" viewBox="0 0 62 24" fill="none" xmlns="http://www.w3.org/2000/svg">
<path d="M28.7429 11.6726V18.7486H26.4821V1.2749H32.4756C33.9945 1.2749 35.2898 1.77783 36.3496 2.78368C37.4329 3.78952 37.9745 5.01759 37.9745 6.46788C37.9745 7.95326 37.4329 9.18133 36.3496 10.1755C35.3016 11.1696 34.0063 11.6609 32.4756 11.6609H28.7429V11.6726ZM28.7429 3.42695V9.52051H32.5227C33.4176 9.52051 34.1712 9.21642 34.7599 8.61993C35.3605 8.02343 35.6666 7.29829 35.6666 6.47957C35.6666 5.67256 35.3605 4.95911 34.7599 4.36262C34.1712 3.74274 33.4293 3.43864 32.5227 3.43864H28.7429V3.42695Z" fill="white"/>
<path d="M43.8856 6.39771C45.5577 6.39771 46.8765 6.84215 47.842 7.73104C48.8076 8.61992 49.2904 9.8363 49.2904 11.3802V18.7486H47.1355V17.0878H47.0413C46.1111 18.4562 44.8629 19.1345 43.3086 19.1345C41.978 19.1345 40.8712 18.7486 39.9763 17.9649C39.0814 17.1813 38.6339 16.2106 38.6339 15.041C38.6339 13.8012 39.1049 12.8188 40.0469 12.0936C40.9889 11.3568 42.2489 10.9942 43.815 10.9942C45.1573 10.9942 46.2642 11.2398 47.1238 11.731V11.2164C47.1238 10.4328 46.8176 9.77782 46.1935 9.22811C45.5694 8.6784 44.8394 8.4094 44.0034 8.4094C42.7434 8.4094 41.7425 8.93571 41.0125 10L39.0225 8.76027C40.1176 7.18133 41.7425 6.39771 43.8856 6.39771ZM40.9654 15.0761C40.9654 15.6609 41.2127 16.1521 41.719 16.538C42.2135 16.924 42.8023 17.1228 43.4735 17.1228C44.4273 17.1228 45.2751 16.772 46.0169 16.0702C46.7587 15.3685 47.1355 14.5497 47.1355 13.6024C46.429 13.0527 45.4517 12.772 44.1918 12.772C43.2733 12.772 42.5079 12.9942 41.8956 13.4269C41.2715 13.8831 40.9654 14.4328 40.9654 15.0761Z" fill="white"/>
<path d="M61.5836 6.78369L54.0475 24.0001H51.7161L54.5185 17.9767L49.5494 6.78369H52.0104L55.59 15.3685H55.6372L59.1226 6.78369H61.5836Z" fill="white"/>
<path d="M19.7504 10.2456C19.7504 9.51343 19.6845 8.81284 19.562 8.13916H10.0854V11.9988L15.5432 12C15.3218 13.2842 14.6094 14.3789 13.5179 15.1087V17.6128H16.7666C18.6636 15.869 19.7504 13.2912 19.7504 10.2456Z" fill="#4285F4"/>
<path d="M13.519 15.1088C12.6147 15.7146 11.4501 16.069 10.0877 16.069C7.45602 16.069 5.22347 14.3076 4.42394 11.9333H1.07275V14.5158C2.73304 17.7883 6.14545 20.0339 10.0877 20.0339C12.8125 20.0339 15.1016 19.1439 16.7677 17.6117L13.519 15.1088Z" fill="#34A853"/>
<path d="M4.10832 10.0176C4.10832 9.35093 4.22018 8.70649 4.42389 8.10064V5.51819H1.07271C0.386221 6.8714 0 8.39889 0 10.0176C0 11.6363 0.387398 13.1638 1.07271 14.517L4.42389 11.9346C4.22018 11.3287 4.10832 10.6843 4.10832 10.0176Z" fill="#FABB05"/>
<path d="M10.0877 3.96491C11.5749 3.96491 12.9067 4.47368 13.9582 5.46783L16.8372 2.61052C15.0886 0.992982 12.809 0 10.0877 0C6.14663 0 2.73304 2.24561 1.07275 5.51812L4.42394 8.10058C5.22347 5.72631 7.45602 3.96491 10.0877 3.96491Z" fill="#E94235"/>
</svg>
