<svg width="378" height="399" viewBox="0 0 378 399" fill="none" xmlns="http://www.w3.org/2000/svg">
<g filter="url(#filter0_f_63_1253)" style="mix-blend-mode:overlay">
<circle cx="124.6" cy="124.6" r="108.5" fill="#BA274A"/>
</g>
<g filter="url(#filter1_f_63_1253)" style="mix-blend-mode:overlay">
<circle cx="143.1" cy="255.1" r="127" fill="#BA274A"/>
</g>
<g opacity="0.84" filter="url(#filter2_f_63_1253)" style="mix-blend-mode:overlay">
<circle cx="227.6" cy="217.6" r="133.5" fill="#FFF2AD"/>
</g>
<g filter="url(#filter3_f_63_1253)" style="mix-blend-mode:color">
<circle cx="234.1" cy="143.1" r="127" fill="#8AAFD3"/>
</g>
<g clip-path="url(#clip0_63_1253)">
<g opacity="0.32">
<g filter="url(#filter4_f_63_1253)">
<path d="M105.446 175.372C97.3636 154.255 104.519 130.46 117.693 113.081C130.832 95.4021 149.633 82.5213 170.074 74.6826C209.079 59.4027 267.548 63.6568 285.402 107.607C301.302 152.449 260.33 194.878 220.712 209.154C181.56 224.406 123.063 219.364 105.446 175.372ZM108.083 174.382C120.106 205.451 157.702 215.235 188.039 211.434C228.278 206.762 272.688 180.784 283.589 139.652C288.993 118.911 280.708 96.6784 263.036 84.5158C245.664 72.2347 223.278 68.9151 202.412 71.0631C170.925 74.5501 139.926 89.816 120.28 115.027C107.371 131.499 100.341 154.206 108.083 174.375V174.382Z" fill="#8AAFD3"/>
</g>
</g>
<g opacity="0.32">
<g filter="url(#filter5_f_63_1253)">
<path d="M298.269 106.219C313.43 157.805 264.815 202.968 219.435 217.174C184.217 228.479 142.08 227.537 111.848 204.14C101.897 196.343 94.0788 185.659 90.1455 173.587C74.5449 121.743 123.279 75.7705 169.097 61.6622C214.4 46.4311 280.604 55.295 298.269 106.226V106.219ZM295.228 107.209C287.703 83.8323 265.261 68.929 242.142 63.6358C218.703 58.0497 193.855 60.3441 171.057 67.6947C132.938 79.9897 92.3075 111.714 91.3311 154.841C90.9754 186.789 117.204 209.44 146.607 216.358C170.074 222.223 195.11 220.208 218.04 212.85C251.892 201.887 284.844 177.82 295.514 142.609C298.861 131.102 298.924 118.639 295.228 107.223V107.209Z" fill="#BA274A"/>
</g>
</g>
<path d="M207.308 211.525C206.771 210.632 206.492 207.696 207.294 207.362C208.256 206.957 209.846 206.692 211.492 206.448C217.078 209.51 222.797 207.104 225.189 201.427C229.771 190.554 233.46 179.417 235.699 167.143C228.062 175.344 220.195 181.356 209.386 181.188C205.815 185.917 199.636 185.777 194.929 182.73C189.719 179.361 186.497 174.361 186.225 168.064C185.43 149.876 186.212 157.965 182.613 141.026C179.935 128.445 170.311 162.568 172.424 182.751C174.098 198.749 186.051 196.308 185.256 204.447C185.11 205.918 182.341 208.164 180.716 208.192C171.385 208.366 165.018 201.685 162.068 193.03C156.126 175.574 161.119 144.694 172.626 129.623C167.152 121.268 173.491 101.309 183.568 102.118C187.641 102.446 190.417 105.891 191.316 109.573C193.165 117.154 190.661 123.626 186.26 130.167C187.941 141.102 197.607 144.059 199.085 160.636C199.364 163.782 199.064 167.959 201.582 170.442C224.791 167.896 227.358 155.134 237.01 136.988L232.965 133.145C228.864 126.032 236.835 107.872 242.094 104.412C245.302 102.306 248.349 101.309 251.494 102.132C254.682 102.969 257.185 105.828 258.566 109.406C262.632 119.957 257.234 130.697 248.37 137.56C250.476 159.548 244.604 183.085 236.947 203.547C235.099 208.478 231.793 212.641 227.804 215.682C220.893 220.947 211.325 218.143 207.315 211.518L207.308 211.525Z" fill="#BA274A"/>
<path d="M142.729 153.565C143.636 171.732 157.953 165.825 151.914 179.996C137.45 180.972 130.713 166.02 130.085 153.314C129.248 136.227 132.854 115.048 143.092 101.316C137.108 93.9515 144.075 73.3784 153.567 73.9712C158.72 74.292 161.071 78.3996 162.012 82.849C163.497 89.8648 160.429 96.3436 156.802 102.299C155.198 105.661 161.531 110.173 161.405 113.109L160.631 131.576C160.471 135.377 158.588 139.673 157.367 143.174C154.634 131.562 157.995 122.705 150.993 109.155C144.012 123.277 141.976 138.515 142.729 153.558V153.565Z" fill="#BA274A"/>
<path d="M206.492 138.313L198.674 146.382L194.483 136.555C193.158 133.445 194.573 132.371 196.191 129.763C198.318 126.318 207.656 110.501 206.973 108.192C206.854 107.788 197.091 104.203 205.794 86.1756C207.74 82.1446 209.316 78.1416 212.95 75.9378C216.325 73.8945 219.031 73.1273 222.476 74.1107C225.259 74.9057 227.588 77.6674 228.815 81.0009C232.679 91.5176 228.139 102.794 218.85 109.197C219.958 124.093 218.403 138.02 214.658 152.281C213.738 155.775 210.216 158.956 206.555 158.921C204.951 157.916 202.656 153.983 203.13 152.051L206.492 138.313Z" fill="#BA274A"/>
<path d="M194.406 189.167C192.425 190.819 187.097 190.282 185.835 187.207L182.683 179.522C189.587 178.643 188.136 182.569 194.406 189.167Z" fill="#BA274A"/>
<path d="M122.651 193.867L124.611 199.077C125.064 200.269 126.368 200.904 127.589 200.506L132.882 198.791L130.029 203.575C129.374 204.67 129.702 206.092 130.762 206.797L135.406 209.865L129.89 210.618C128.628 210.793 127.721 211.93 127.833 213.199L128.328 218.743L124.304 214.9C123.376 214.022 121.926 214.022 120.998 214.9L116.974 218.743L117.469 213.199C117.581 211.93 116.674 210.793 115.412 210.618L109.896 209.865L114.54 206.797C115.607 206.092 115.928 204.677 115.273 203.575L112.42 198.791L117.714 200.506C118.927 200.897 120.238 200.269 120.691 199.077L122.651 193.867Z" fill="#8AAFD3"/>
<path d="M188.122 48.6L190.082 53.8095C190.535 55.0021 191.84 55.6367 193.06 55.2392L198.353 53.5236L195.501 58.3077C194.845 59.4026 195.173 60.8253 196.233 61.5297L200.878 64.5982L195.361 65.3514C194.099 65.5257 193.192 66.6625 193.304 67.9317L193.799 73.476L189.775 69.6334C188.848 68.7547 187.397 68.7547 186.47 69.6334L182.446 73.476L182.941 67.9317C183.052 66.6625 182.146 65.5257 180.883 65.3514L175.367 64.5982L180.012 61.5297C181.079 60.8253 181.4 59.4096 180.744 58.3077L177.892 53.5236L183.185 55.2392C184.398 55.6297 185.709 55.0021 186.163 53.8095L188.122 48.6Z" fill="#BA274A"/>
<path d="M280.206 169.87L282.689 175.763C283.107 176.753 284.126 177.339 285.193 177.206L291.539 176.411L287.675 181.509C287.027 182.367 287.027 183.546 287.675 184.396L291.539 189.494L285.193 188.699C284.126 188.567 283.107 189.16 282.689 190.143L280.206 196.036L277.723 190.143C277.305 189.153 276.287 188.567 275.22 188.699L268.874 189.494L272.737 184.396C273.386 183.539 273.386 182.36 272.737 181.509L268.874 176.411L275.22 177.206C276.287 177.339 277.305 176.746 277.723 175.763L280.206 169.87Z" fill="#8AAFD3"/>
<path d="M89.1903 145.838L91.5335 150.301C92.9423 152.979 95.1321 155.169 97.8101 156.577L102.273 158.921L97.8101 161.264C95.1321 162.673 92.9423 164.862 91.5335 167.54L89.1903 172.004L86.847 167.54C85.4383 164.862 83.2485 162.673 80.5705 161.264L76.1072 158.921L80.5705 156.577C83.2485 155.169 85.4383 152.979 86.847 150.301L89.1903 145.838Z" fill="#BA274A"/>
<path d="M91.1814 203.57L91.7966 206.79C92.1675 208.722 93.1165 210.498 94.5168 211.88L96.8514 214.181L93.6319 214.796C91.6996 215.167 89.9236 216.116 88.5414 217.517L86.2406 219.851L85.6254 216.632C85.2546 214.699 84.3055 212.923 82.9053 211.541L80.5706 209.24L83.7902 208.625C85.7225 208.254 87.4985 207.305 88.8807 205.905L91.1814 203.57Z" fill="#BA274A"/>
<path d="M287.097 199.76L288.737 201.508C289.722 202.557 291.004 203.283 292.41 203.589L294.753 204.097L293.004 205.737C291.955 206.722 291.23 208.004 290.924 209.41L290.416 211.753L288.776 210.004C287.79 208.955 286.509 208.229 285.103 207.923L282.76 207.416L284.508 205.775C285.557 204.79 286.283 203.509 286.589 202.102L287.097 199.76Z" fill="#BA274A"/>
</g>
<path d="M103.151 276.211V264.574H107.81C108.666 264.574 109.38 264.701 109.952 264.955C110.524 265.209 110.954 265.561 111.241 266.012C111.529 266.459 111.673 266.974 111.673 267.557C111.673 268.012 111.582 268.411 111.401 268.756C111.219 269.097 110.969 269.377 110.651 269.597C110.336 269.813 109.976 269.966 109.571 270.057V270.171C110.014 270.19 110.429 270.315 110.815 270.546C111.205 270.777 111.522 271.101 111.764 271.517C112.007 271.93 112.128 272.423 112.128 272.995C112.128 273.612 111.974 274.163 111.668 274.648C111.365 275.129 110.916 275.51 110.321 275.79C109.726 276.07 108.993 276.211 108.122 276.211H103.151ZM105.611 274.199H107.616C108.302 274.199 108.802 274.069 109.116 273.807C109.431 273.542 109.588 273.19 109.588 272.75C109.588 272.428 109.51 272.144 109.355 271.898C109.2 271.652 108.978 271.459 108.69 271.319C108.406 271.178 108.067 271.108 107.673 271.108H105.611V274.199ZM105.611 269.444H107.435C107.772 269.444 108.071 269.385 108.332 269.267C108.597 269.146 108.806 268.976 108.957 268.756C109.113 268.536 109.19 268.273 109.19 267.966C109.19 267.546 109.041 267.207 108.741 266.949C108.446 266.692 108.026 266.563 107.48 266.563H105.611V269.444ZM113.683 276.211V267.483H116.104V276.211H113.683ZM114.899 266.358C114.539 266.358 114.231 266.239 113.973 266C113.719 265.758 113.592 265.468 113.592 265.131C113.592 264.798 113.719 264.512 113.973 264.273C114.231 264.031 114.539 263.909 114.899 263.909C115.259 263.909 115.566 264.031 115.82 264.273C116.077 264.512 116.206 264.798 116.206 265.131C116.206 265.468 116.077 265.758 115.82 266C115.566 266.239 115.259 266.358 114.899 266.358ZM122.02 276.381C121.122 276.381 120.349 276.199 119.702 275.836C119.058 275.468 118.562 274.949 118.213 274.279C117.865 273.605 117.69 272.807 117.69 271.887C117.69 270.989 117.865 270.201 118.213 269.523C118.562 268.845 119.052 268.317 119.685 267.938C120.321 267.559 121.067 267.37 121.923 267.37C122.499 267.37 123.035 267.462 123.531 267.648C124.031 267.83 124.467 268.105 124.838 268.472C125.213 268.839 125.505 269.302 125.713 269.858C125.921 270.411 126.026 271.059 126.026 271.802V272.466H118.656V270.966H123.747C123.747 270.618 123.671 270.309 123.52 270.04C123.368 269.771 123.158 269.561 122.889 269.409C122.624 269.254 122.315 269.177 121.963 269.177C121.596 269.177 121.27 269.262 120.986 269.432C120.705 269.599 120.486 269.824 120.327 270.108C120.168 270.389 120.086 270.701 120.082 271.046V272.472C120.082 272.904 120.162 273.277 120.321 273.591C120.484 273.906 120.713 274.148 121.008 274.319C121.304 274.489 121.654 274.574 122.06 274.574C122.329 274.574 122.575 274.536 122.798 274.461C123.022 274.385 123.213 274.271 123.372 274.12C123.531 273.968 123.652 273.783 123.736 273.563L125.974 273.711C125.861 274.248 125.628 274.718 125.276 275.12C124.927 275.517 124.476 275.828 123.923 276.052C123.374 276.271 122.74 276.381 122.02 276.381ZM130.026 271.165V276.211H127.605V267.483H129.912V269.023H130.014C130.207 268.516 130.531 268.114 130.986 267.819C131.44 267.519 131.991 267.37 132.639 267.37C133.245 267.37 133.774 267.502 134.224 267.767C134.675 268.033 135.026 268.411 135.276 268.904C135.526 269.392 135.651 269.976 135.651 270.654V276.211H133.23V271.086C133.234 270.552 133.097 270.135 132.821 269.836C132.544 269.533 132.164 269.381 131.679 269.381C131.353 269.381 131.065 269.451 130.815 269.591C130.569 269.731 130.376 269.936 130.236 270.205C130.099 270.47 130.029 270.79 130.026 271.165ZM145.382 267.483L142.331 276.211H139.604L136.553 267.483H139.109L140.922 273.728H141.013L142.82 267.483H145.382ZM150.317 276.381C149.419 276.381 148.646 276.199 147.999 275.836C147.355 275.468 146.858 274.949 146.51 274.279C146.161 273.605 145.987 272.807 145.987 271.887C145.987 270.989 146.161 270.201 146.51 269.523C146.858 268.845 147.349 268.317 147.981 267.938C148.618 267.559 149.364 267.37 150.22 267.37C150.796 267.37 151.332 267.462 151.828 267.648C152.328 267.83 152.764 268.105 153.135 268.472C153.51 268.839 153.802 269.302 154.01 269.858C154.218 270.411 154.322 271.059 154.322 271.802V272.466H146.953V270.966H152.044C152.044 270.618 151.968 270.309 151.817 270.04C151.665 269.771 151.455 269.561 151.186 269.409C150.921 269.254 150.612 269.177 150.26 269.177C149.892 269.177 149.567 269.262 149.283 269.432C149.002 269.599 148.783 269.824 148.624 270.108C148.464 270.389 148.383 270.701 148.379 271.046V272.472C148.379 272.904 148.459 273.277 148.618 273.591C148.781 273.906 149.01 274.148 149.305 274.319C149.601 274.489 149.951 274.574 150.356 274.574C150.625 274.574 150.872 274.536 151.095 274.461C151.319 274.385 151.51 274.271 151.669 274.12C151.828 273.968 151.949 273.783 152.033 273.563L154.271 273.711C154.158 274.248 153.925 274.718 153.572 275.12C153.224 275.517 152.773 275.828 152.22 276.052C151.671 276.271 151.036 276.381 150.317 276.381ZM158.322 271.165V276.211H155.902V267.483H158.209V269.023H158.311C158.504 268.516 158.828 268.114 159.283 267.819C159.737 267.519 160.288 267.37 160.936 267.37C161.542 267.37 162.071 267.502 162.521 267.767C162.972 268.033 163.322 268.411 163.572 268.904C163.822 269.392 163.947 269.976 163.947 270.654V276.211H161.527V271.086C161.531 270.552 161.394 270.135 161.118 269.836C160.841 269.533 160.461 269.381 159.976 269.381C159.65 269.381 159.362 269.451 159.112 269.591C158.866 269.731 158.673 269.936 158.533 270.205C158.396 270.47 158.326 270.79 158.322 271.165ZM171.452 272.495V267.483H173.872V276.211H171.548V274.625H171.457C171.26 275.137 170.933 275.548 170.474 275.858C170.02 276.169 169.465 276.324 168.81 276.324C168.226 276.324 167.713 276.192 167.27 275.927C166.827 275.661 166.48 275.284 166.23 274.796C165.984 274.307 165.859 273.722 165.855 273.04V267.483H168.276V272.608C168.279 273.123 168.418 273.531 168.69 273.83C168.963 274.129 169.329 274.279 169.787 274.279C170.079 274.279 170.351 274.212 170.605 274.08C170.859 273.944 171.063 273.743 171.219 273.478C171.378 273.212 171.455 272.885 171.452 272.495ZM179.785 276.381C178.888 276.381 178.115 276.199 177.467 275.836C176.823 275.468 176.327 274.949 175.979 274.279C175.63 273.605 175.456 272.807 175.456 271.887C175.456 270.989 175.63 270.201 175.979 269.523C176.327 268.845 176.818 268.317 177.45 267.938C178.087 267.559 178.833 267.37 179.689 267.37C180.265 267.37 180.801 267.462 181.297 267.648C181.797 267.83 182.232 268.105 182.604 268.472C182.979 268.839 183.27 269.302 183.479 269.858C183.687 270.411 183.791 271.059 183.791 271.802V272.466H176.422V270.966H181.513C181.513 270.618 181.437 270.309 181.285 270.04C181.134 269.771 180.924 269.561 180.655 269.409C180.39 269.254 180.081 269.177 179.729 269.177C179.361 269.177 179.035 269.262 178.751 269.432C178.471 269.599 178.251 269.824 178.092 270.108C177.933 270.389 177.852 270.701 177.848 271.046V272.472C177.848 272.904 177.928 273.277 178.087 273.591C178.249 273.906 178.479 274.148 178.774 274.319C179.07 274.489 179.42 274.574 179.825 274.574C180.094 274.574 180.34 274.536 180.564 274.461C180.787 274.385 180.979 274.271 181.138 274.12C181.297 273.968 181.418 273.783 181.501 273.563L183.74 273.711C183.626 274.248 183.393 274.718 183.041 275.12C182.693 275.517 182.242 275.828 181.689 276.052C181.14 276.271 180.505 276.381 179.785 276.381ZM196.335 269.972L194.119 270.108C194.081 269.919 194 269.748 193.875 269.597C193.75 269.442 193.585 269.319 193.381 269.228C193.18 269.133 192.939 269.086 192.659 269.086C192.284 269.086 191.968 269.165 191.71 269.324C191.453 269.48 191.324 269.688 191.324 269.949C191.324 270.158 191.407 270.334 191.574 270.478C191.74 270.622 192.026 270.737 192.432 270.824L194.011 271.142C194.86 271.317 195.492 271.597 195.909 271.983C196.326 272.37 196.534 272.877 196.534 273.506C196.534 274.078 196.365 274.58 196.028 275.012C195.695 275.444 195.237 275.781 194.653 276.023C194.074 276.262 193.405 276.381 192.648 276.381C191.492 276.381 190.572 276.141 189.886 275.659C189.205 275.175 188.805 274.516 188.687 273.682L191.068 273.557C191.14 273.909 191.314 274.178 191.591 274.364C191.867 274.546 192.222 274.637 192.653 274.637C193.078 274.637 193.419 274.555 193.676 274.392C193.937 274.226 194.07 274.012 194.074 273.75C194.07 273.531 193.977 273.351 193.795 273.211C193.614 273.067 193.333 272.957 192.955 272.881L191.443 272.58C190.591 272.409 189.956 272.114 189.54 271.694C189.127 271.273 188.92 270.737 188.92 270.086C188.92 269.525 189.072 269.042 189.375 268.637C189.682 268.231 190.112 267.919 190.665 267.699C191.222 267.48 191.873 267.37 192.619 267.37C193.722 267.37 194.589 267.603 195.222 268.069C195.858 268.534 196.229 269.169 196.335 269.972ZM203.655 272.495V267.483H206.075V276.211H203.751V274.625H203.66C203.463 275.137 203.136 275.548 202.678 275.858C202.223 276.169 201.668 276.324 201.013 276.324C200.429 276.324 199.916 276.192 199.473 275.927C199.03 275.661 198.683 275.284 198.433 274.796C198.187 274.307 198.062 273.722 198.058 273.04V267.483H200.479V272.608C200.482 273.123 200.621 273.531 200.893 273.83C201.166 274.129 201.532 274.279 201.99 274.279C202.282 274.279 202.554 274.212 202.808 274.08C203.062 273.944 203.267 273.743 203.422 273.478C203.581 273.212 203.659 272.885 203.655 272.495ZM208.011 276.211V267.483H210.358V269.006H210.449C210.608 268.464 210.875 268.055 211.25 267.779C211.625 267.498 212.057 267.358 212.545 267.358C212.667 267.358 212.797 267.366 212.937 267.381C213.078 267.396 213.201 267.417 213.307 267.444V269.591C213.193 269.557 213.036 269.527 212.835 269.5C212.634 269.474 212.451 269.461 212.284 269.461C211.928 269.461 211.61 269.538 211.33 269.694C211.053 269.845 210.833 270.057 210.67 270.33C210.511 270.603 210.432 270.917 210.432 271.273V276.211H208.011ZM218.307 264.574H221.341L224.545 272.392H224.682L227.886 264.574H230.92V276.211H228.534V268.637H228.437L225.426 276.154H223.801L220.79 268.608H220.693V276.211H218.307V264.574ZM232.902 276.211V267.483H235.322V276.211H232.902ZM234.118 266.358C233.758 266.358 233.449 266.239 233.192 266C232.938 265.758 232.811 265.468 232.811 265.131C232.811 264.798 232.938 264.512 233.192 264.273C233.449 264.031 233.758 263.909 234.118 263.909C234.478 263.909 234.785 264.031 235.038 264.273C235.296 264.512 235.425 264.798 235.425 265.131C235.425 265.468 235.296 265.758 235.038 266C234.785 266.239 234.478 266.358 234.118 266.358ZM239.682 271.165V276.211H237.261V267.483H239.568V269.023H239.67C239.864 268.516 240.187 268.114 240.642 267.819C241.097 267.519 241.648 267.37 242.295 267.37C242.901 267.37 243.43 267.502 243.881 267.767C244.331 268.033 244.682 268.411 244.932 268.904C245.182 269.392 245.307 269.976 245.307 270.654V276.211H242.886V271.086C242.89 270.552 242.754 270.135 242.477 269.836C242.201 269.533 241.82 269.381 241.335 269.381C241.009 269.381 240.722 269.451 240.472 269.591C240.225 269.731 240.032 269.936 239.892 270.205C239.756 270.47 239.686 270.79 239.682 271.165ZM251.146 279.665C250.362 279.665 249.69 279.557 249.129 279.341C248.572 279.129 248.129 278.839 247.8 278.472C247.47 278.105 247.256 277.692 247.158 277.233L249.396 276.932C249.464 277.106 249.572 277.269 249.72 277.421C249.868 277.572 250.063 277.694 250.305 277.784C250.552 277.879 250.851 277.927 251.203 277.927C251.73 277.927 252.163 277.798 252.504 277.54C252.849 277.286 253.021 276.86 253.021 276.262V274.665H252.919C252.813 274.908 252.654 275.137 252.442 275.353C252.23 275.569 251.957 275.745 251.624 275.881C251.29 276.017 250.892 276.086 250.43 276.086C249.775 276.086 249.178 275.934 248.641 275.631C248.106 275.324 247.68 274.856 247.362 274.228C247.048 273.595 246.891 272.796 246.891 271.83C246.891 270.841 247.052 270.016 247.374 269.353C247.696 268.69 248.124 268.194 248.658 267.864C249.196 267.534 249.785 267.37 250.425 267.37C250.913 267.37 251.322 267.453 251.652 267.62C251.981 267.783 252.247 267.987 252.447 268.233C252.652 268.476 252.809 268.714 252.919 268.949H253.01V267.483H255.413V276.296C255.413 277.038 255.231 277.659 254.868 278.159C254.504 278.659 254 279.034 253.356 279.284C252.716 279.538 251.98 279.665 251.146 279.665ZM251.197 274.267C251.588 274.267 251.917 274.171 252.186 273.978C252.459 273.781 252.667 273.5 252.811 273.137C252.959 272.769 253.033 272.33 253.033 271.819C253.033 271.307 252.961 270.864 252.817 270.489C252.673 270.11 252.464 269.817 252.192 269.608C251.919 269.4 251.588 269.296 251.197 269.296C250.8 269.296 250.464 269.404 250.192 269.62C249.919 269.832 249.713 270.127 249.572 270.506C249.432 270.885 249.362 271.322 249.362 271.819C249.362 272.322 249.432 272.758 249.572 273.125C249.716 273.489 249.923 273.771 250.192 273.972C250.464 274.169 250.8 274.267 251.197 274.267ZM259.76 264.574V276.211H257.339V264.574H259.76ZM265.676 276.381C264.778 276.381 264.006 276.199 263.358 275.836C262.714 275.468 262.218 274.949 261.869 274.279C261.521 273.605 261.347 272.807 261.347 271.887C261.347 270.989 261.521 270.201 261.869 269.523C262.218 268.845 262.708 268.317 263.341 267.938C263.977 267.559 264.723 267.37 265.58 267.37C266.155 267.37 266.691 267.462 267.187 267.648C267.687 267.83 268.123 268.105 268.494 268.472C268.869 268.839 269.161 269.302 269.369 269.858C269.578 270.411 269.682 271.059 269.682 271.802V272.466H262.312V270.966H267.403C267.403 270.618 267.328 270.309 267.176 270.04C267.025 269.771 266.814 269.561 266.545 269.409C266.28 269.254 265.972 269.177 265.619 269.177C265.252 269.177 264.926 269.262 264.642 269.432C264.362 269.599 264.142 269.824 263.983 270.108C263.824 270.389 263.742 270.701 263.739 271.046V272.472C263.739 272.904 263.818 273.277 263.977 273.591C264.14 273.906 264.369 274.148 264.665 274.319C264.96 274.489 265.311 274.574 265.716 274.574C265.985 274.574 266.231 274.536 266.455 274.461C266.678 274.385 266.869 274.271 267.028 274.12C267.187 273.968 267.309 273.783 267.392 273.563L269.631 273.711C269.517 274.248 269.284 274.718 268.932 275.12C268.583 275.517 268.133 275.828 267.58 276.052C267.03 276.271 266.396 276.381 265.676 276.381ZM272.676 276.358C272.301 276.358 271.979 276.226 271.71 275.961C271.445 275.692 271.312 275.37 271.312 274.995C271.312 274.623 271.445 274.305 271.71 274.04C271.979 273.775 272.301 273.642 272.676 273.642C273.04 273.642 273.358 273.775 273.631 274.04C273.903 274.305 274.04 274.623 274.04 274.995C274.04 275.245 273.975 275.474 273.847 275.682C273.722 275.887 273.557 276.052 273.352 276.177C273.148 276.298 272.922 276.358 272.676 276.358Z" fill="#0C221F"/>
<path d="M84.8076 302.211V292.029H86.3438V300.888H90.9574V302.211H84.8076ZM93.3078 292.029V292.983C93.3078 293.265 93.2547 293.562 93.1487 293.873C93.0459 294.181 92.9001 294.478 92.7112 294.763C92.5222 295.048 92.3002 295.293 92.045 295.499L91.3092 294.972C91.5047 294.687 91.6738 294.384 91.8163 294.062C91.9621 293.741 92.035 293.386 92.035 292.998V292.029H93.3078ZM96.2484 302.38C95.7645 302.38 95.327 302.29 94.9359 302.111C94.5448 301.929 94.235 301.665 94.0063 301.321C93.7809 300.976 93.6682 300.553 93.6682 300.053C93.6682 299.622 93.7511 299.267 93.9168 298.989C94.0825 298.711 94.3062 298.49 94.5879 298.328C94.8697 298.165 95.1845 298.043 95.5325 297.96C95.8805 297.877 96.2352 297.814 96.5965 297.771C97.0538 297.718 97.4251 297.675 97.7101 297.642C97.9951 297.605 98.2023 297.547 98.3315 297.468C98.4608 297.388 98.5254 297.259 98.5254 297.08V297.045C98.5254 296.611 98.4028 296.275 98.1575 296.036C97.9156 295.797 97.5543 295.678 97.0737 295.678C96.5733 295.678 96.1788 295.789 95.8905 296.011C95.6055 296.23 95.4082 296.473 95.2989 296.742L93.9019 296.424C94.0676 295.96 94.3095 295.585 94.6277 295.3C94.9492 295.012 95.3188 294.803 95.7364 294.674C96.154 294.541 96.5931 294.475 97.0538 294.475C97.3588 294.475 97.6819 294.511 98.0233 294.584C98.368 294.654 98.6895 294.783 98.9878 294.972C99.2894 295.161 99.5363 295.431 99.7286 295.782C99.9208 296.13 100.017 296.583 100.017 297.14V302.211H98.5652V301.167H98.5055C98.4094 301.359 98.2653 301.548 98.073 301.733C97.8808 301.919 97.6339 302.073 97.3323 302.196C97.0306 302.318 96.6694 302.38 96.2484 302.38ZM96.5716 301.186C96.9826 301.186 97.3339 301.105 97.6256 300.943C97.9206 300.78 98.1443 300.568 98.2967 300.306C98.4525 300.041 98.5304 299.758 98.5304 299.456V298.472C98.4774 298.525 98.3746 298.575 98.2222 298.621C98.073 298.664 97.9023 298.702 97.7101 298.735C97.5179 298.765 97.3306 298.793 97.1483 298.82C96.966 298.843 96.8136 298.863 96.6909 298.88C96.4026 298.916 96.1391 298.977 95.9004 299.064C95.6651 299.15 95.4762 299.274 95.3337 299.436C95.1945 299.596 95.1249 299.808 95.1249 300.073C95.1249 300.441 95.2608 300.719 95.5325 300.908C95.8043 301.094 96.1507 301.186 96.5716 301.186ZM101.997 305.074V294.574H103.449V295.812H103.573C103.659 295.653 103.783 295.469 103.946 295.26C104.108 295.052 104.333 294.869 104.622 294.713C104.91 294.554 105.291 294.475 105.765 294.475C106.382 294.475 106.932 294.631 107.416 294.942C107.9 295.254 108.279 295.703 108.554 296.289C108.833 296.876 108.972 297.582 108.972 298.407C108.972 299.233 108.834 299.94 108.559 300.53C108.284 301.117 107.906 301.569 107.426 301.887C106.945 302.202 106.397 302.36 105.78 302.36C105.316 302.36 104.937 302.282 104.642 302.126C104.35 301.97 104.121 301.788 103.956 301.579C103.79 301.37 103.662 301.185 103.573 301.022H103.483V305.074H101.997ZM103.454 298.392C103.454 298.929 103.531 299.4 103.687 299.804C103.843 300.209 104.068 300.525 104.363 300.754C104.658 300.979 105.02 301.092 105.447 301.092C105.891 301.092 106.262 300.974 106.561 300.739C106.859 300.5 107.084 300.177 107.237 299.77C107.393 299.362 107.471 298.903 107.471 298.392C107.471 297.889 107.394 297.436 107.242 297.035C107.093 296.634 106.867 296.318 106.566 296.086C106.267 295.854 105.895 295.738 105.447 295.738C105.016 295.738 104.652 295.849 104.353 296.071C104.058 296.293 103.835 296.603 103.682 297C103.53 297.398 103.454 297.862 103.454 298.392ZM110.637 305.074V294.574H112.089V295.812H112.213C112.3 295.653 112.424 295.469 112.586 295.26C112.749 295.052 112.974 294.869 113.262 294.713C113.551 294.554 113.932 294.475 114.406 294.475C115.022 294.475 115.573 294.631 116.057 294.942C116.54 295.254 116.92 295.703 117.195 296.289C117.473 296.876 117.613 297.582 117.613 298.407C117.613 299.233 117.475 299.94 117.2 300.53C116.925 301.117 116.547 301.569 116.066 301.887C115.586 302.202 115.037 302.36 114.421 302.36C113.957 302.36 113.577 302.282 113.282 302.126C112.991 301.97 112.762 301.788 112.596 301.579C112.431 301.37 112.303 301.185 112.213 301.022H112.124V305.074H110.637ZM112.094 298.392C112.094 298.929 112.172 299.4 112.328 299.804C112.484 300.209 112.709 300.525 113.004 300.754C113.299 300.979 113.66 301.092 114.088 301.092C114.532 301.092 114.903 300.974 115.201 300.739C115.5 300.5 115.725 300.177 115.878 299.77C116.033 299.362 116.111 298.903 116.111 298.392C116.111 297.889 116.035 297.436 115.883 297.035C115.733 296.634 115.508 296.318 115.206 296.086C114.908 295.854 114.535 295.738 114.088 295.738C113.657 295.738 113.292 295.849 112.994 296.071C112.699 296.293 112.475 296.603 112.323 297C112.17 297.398 112.094 297.862 112.094 298.392ZM128.139 305.074V301.022H128.049C127.96 301.185 127.83 301.37 127.661 301.579C127.496 301.788 127.267 301.97 126.975 302.126C126.684 302.282 126.306 302.36 125.842 302.36C125.225 302.36 124.675 302.202 124.191 301.887C123.711 301.569 123.333 301.117 123.058 300.53C122.786 299.94 122.65 299.233 122.65 298.407C122.65 297.582 122.788 296.876 123.063 296.289C123.341 295.703 123.722 295.254 124.206 294.942C124.69 294.631 125.239 294.475 125.852 294.475C126.326 294.475 126.707 294.554 126.995 294.713C127.287 294.869 127.512 295.052 127.671 295.26C127.834 295.469 127.96 295.653 128.049 295.812H128.174V294.574H129.625V305.074H128.139ZM126.17 301.092C126.598 301.092 126.959 300.979 127.254 300.754C127.552 300.525 127.777 300.209 127.93 299.804C128.086 299.4 128.164 298.929 128.164 298.392C128.164 297.862 128.087 297.398 127.935 297C127.782 296.603 127.559 296.293 127.264 296.071C126.969 295.849 126.604 295.738 126.17 295.738C125.723 295.738 125.35 295.854 125.051 296.086C124.753 296.318 124.528 296.634 124.375 297.035C124.226 297.436 124.152 297.889 124.152 298.392C124.152 298.903 124.228 299.362 124.38 299.77C124.533 300.177 124.758 300.5 125.056 300.739C125.358 300.974 125.729 301.092 126.17 301.092ZM136.461 299.044V294.574H137.953V302.211H136.491V300.888H136.411C136.236 301.296 135.954 301.636 135.566 301.907C135.182 302.176 134.703 302.31 134.129 302.31C133.639 302.31 133.205 302.202 132.827 301.987C132.452 301.768 132.157 301.445 131.942 301.017C131.73 300.59 131.624 300.061 131.624 299.431V294.574H133.11V299.253C133.11 299.773 133.254 300.187 133.543 300.495C133.831 300.804 134.206 300.958 134.666 300.958C134.945 300.958 135.222 300.888 135.497 300.749C135.775 300.61 136.005 300.399 136.188 300.118C136.373 299.836 136.464 299.478 136.461 299.044ZM139.95 302.211V294.574H141.436V302.211H139.95ZM140.701 293.396C140.442 293.396 140.22 293.31 140.034 293.137C139.852 292.962 139.761 292.753 139.761 292.511C139.761 292.266 139.852 292.057 140.034 291.885C140.22 291.709 140.442 291.621 140.701 291.621C140.959 291.621 141.18 291.709 141.362 291.885C141.548 292.057 141.64 292.266 141.64 292.511C141.64 292.753 141.548 292.962 141.362 293.137C141.18 293.31 140.959 293.396 140.701 293.396ZM150.706 294.574V295.767H146.535V294.574H150.706ZM147.653 292.745H149.14V299.968C149.14 300.257 149.183 300.474 149.269 300.62C149.355 300.762 149.466 300.86 149.602 300.913C149.742 300.963 149.892 300.988 150.055 300.988C150.174 300.988 150.278 300.979 150.368 300.963C150.457 300.946 150.527 300.933 150.577 300.923L150.845 302.151C150.759 302.184 150.636 302.217 150.477 302.25C150.318 302.287 150.119 302.307 149.881 302.31C149.49 302.317 149.125 302.247 148.787 302.101C148.449 301.955 148.175 301.73 147.967 301.425C147.758 301.12 147.653 300.737 147.653 300.277V292.745ZM155.56 302.365C154.807 302.365 154.159 302.204 153.616 301.882C153.075 301.558 152.658 301.102 152.363 300.515C152.071 299.925 151.925 299.234 151.925 298.442C151.925 297.66 152.071 296.971 152.363 296.374C152.658 295.777 153.069 295.312 153.596 294.977C154.126 294.642 154.746 294.475 155.455 294.475C155.886 294.475 156.304 294.546 156.708 294.689C157.112 294.831 157.475 295.055 157.797 295.36C158.118 295.665 158.372 296.061 158.557 296.548C158.743 297.032 158.836 297.62 158.836 298.313V298.84H152.765V297.726H157.379C157.379 297.335 157.3 296.989 157.14 296.687C156.981 296.382 156.758 296.142 156.469 295.966C156.184 295.791 155.85 295.703 155.465 295.703C155.047 295.703 154.683 295.806 154.371 296.011C154.063 296.213 153.824 296.478 153.655 296.806C153.49 297.131 153.407 297.484 153.407 297.865V298.735C153.407 299.246 153.496 299.68 153.675 300.038C153.858 300.396 154.111 300.669 154.436 300.858C154.761 301.044 155.14 301.137 155.574 301.137C155.856 301.137 156.113 301.097 156.345 301.017C156.577 300.935 156.778 300.812 156.947 300.65C157.116 300.487 157.245 300.287 157.334 300.048L158.741 300.302C158.629 300.716 158.426 301.079 158.135 301.39C157.846 301.699 157.484 301.939 157.046 302.111C156.612 302.28 156.116 302.365 155.56 302.365ZM164.19 305.074V294.574H165.642V295.812H165.766C165.852 295.653 165.977 295.469 166.139 295.26C166.301 295.052 166.527 294.869 166.815 294.713C167.104 294.554 167.485 294.475 167.959 294.475C168.575 294.475 169.125 294.631 169.609 294.942C170.093 295.254 170.473 295.703 170.748 296.289C171.026 296.876 171.165 297.582 171.165 298.407C171.165 299.233 171.028 299.94 170.753 300.53C170.478 301.117 170.1 301.569 169.619 301.887C169.139 302.202 168.59 302.36 167.974 302.36C167.51 302.36 167.13 302.282 166.835 302.126C166.543 301.97 166.315 301.788 166.149 301.579C165.983 301.37 165.856 301.185 165.766 301.022H165.677V305.074H164.19ZM165.647 298.392C165.647 298.929 165.725 299.4 165.881 299.804C166.036 300.209 166.262 300.525 166.557 300.754C166.852 300.979 167.213 301.092 167.64 301.092C168.085 301.092 168.456 300.974 168.754 300.739C169.052 300.5 169.278 300.177 169.43 299.77C169.586 299.362 169.664 298.903 169.664 298.392C169.664 297.889 169.588 297.436 169.435 297.035C169.286 296.634 169.061 296.318 168.759 296.086C168.461 295.854 168.088 295.738 167.64 295.738C167.21 295.738 166.845 295.849 166.547 296.071C166.252 296.293 166.028 296.603 165.876 297C165.723 297.398 165.647 297.862 165.647 298.392ZM176.122 302.365C175.37 302.365 174.722 302.204 174.178 301.882C173.638 301.558 173.22 301.102 172.925 300.515C172.634 299.925 172.488 299.234 172.488 298.442C172.488 297.66 172.634 296.971 172.925 296.374C173.22 295.777 173.631 295.312 174.158 294.977C174.689 294.642 175.308 294.475 176.018 294.475C176.448 294.475 176.866 294.546 177.27 294.689C177.675 294.831 178.038 295.055 178.359 295.36C178.681 295.665 178.934 296.061 179.12 296.548C179.306 297.032 179.398 297.62 179.398 298.313V298.84H173.328V297.726H177.942C177.942 297.335 177.862 296.989 177.703 296.687C177.544 296.382 177.32 296.142 177.032 295.966C176.747 295.791 176.412 295.703 176.028 295.703C175.61 295.703 175.245 295.806 174.934 296.011C174.626 296.213 174.387 296.478 174.218 296.806C174.052 297.131 173.969 297.484 173.969 297.865V298.735C173.969 299.246 174.059 299.68 174.238 300.038C174.42 300.396 174.674 300.669 174.998 300.858C175.323 301.044 175.703 301.137 176.137 301.137C176.419 301.137 176.676 301.097 176.908 301.017C177.14 300.935 177.34 300.812 177.509 300.65C177.678 300.487 177.807 300.287 177.897 300.048L179.304 300.302C179.191 300.716 178.989 301.079 178.697 301.39C178.409 301.699 178.046 301.939 177.609 302.111C177.174 302.28 176.679 302.365 176.122 302.365ZM181.048 302.211V294.574H182.484V295.787H182.564C182.703 295.376 182.948 295.053 183.3 294.818C183.654 294.579 184.055 294.46 184.503 294.46C184.596 294.46 184.705 294.463 184.831 294.47C184.96 294.476 185.061 294.485 185.134 294.495V295.917C185.075 295.9 184.969 295.882 184.816 295.862C184.664 295.839 184.511 295.827 184.359 295.827C184.007 295.827 183.694 295.902 183.419 296.051C183.147 296.197 182.932 296.4 182.773 296.662C182.614 296.921 182.534 297.216 182.534 297.547V302.211H181.048ZM186.421 302.211V294.574H187.848V295.817H187.942C188.101 295.396 188.361 295.068 188.723 294.833C189.084 294.594 189.516 294.475 190.02 294.475C190.531 294.475 190.958 294.594 191.303 294.833C191.651 295.071 191.908 295.4 192.073 295.817H192.153C192.335 295.409 192.625 295.085 193.023 294.843C193.421 294.597 193.895 294.475 194.445 294.475C195.138 294.475 195.703 294.692 196.14 295.126C196.581 295.56 196.801 296.215 196.801 297.09V302.211H195.315V297.229C195.315 296.712 195.174 296.337 194.892 296.105C194.611 295.873 194.274 295.757 193.883 295.757C193.399 295.757 193.023 295.907 192.754 296.205C192.486 296.5 192.352 296.879 192.352 297.343V302.211H190.87V297.135C190.87 296.72 190.741 296.387 190.482 296.135C190.224 295.883 189.888 295.757 189.473 295.757C189.192 295.757 188.931 295.832 188.693 295.981C188.457 296.127 188.267 296.331 188.121 296.593C187.978 296.855 187.907 297.158 187.907 297.503V302.211H186.421ZM202.085 302.365C201.333 302.365 200.685 302.204 200.141 301.882C199.601 301.558 199.183 301.102 198.888 300.515C198.597 299.925 198.451 299.234 198.451 298.442C198.451 297.66 198.597 296.971 198.888 296.374C199.183 295.777 199.594 295.312 200.121 294.977C200.651 294.642 201.271 294.475 201.981 294.475C202.411 294.475 202.829 294.546 203.233 294.689C203.638 294.831 204.001 295.055 204.322 295.36C204.644 295.665 204.897 296.061 205.083 296.548C205.268 297.032 205.361 297.62 205.361 298.313V298.84H199.291V297.726H203.905C203.905 297.335 203.825 296.989 203.666 296.687C203.507 296.382 203.283 296.142 202.995 295.966C202.71 295.791 202.375 295.703 201.99 295.703C201.573 295.703 201.208 295.806 200.897 296.011C200.588 296.213 200.35 296.478 200.181 296.806C200.015 297.131 199.932 297.484 199.932 297.865V298.735C199.932 299.246 200.022 299.68 200.201 300.038C200.383 300.396 200.637 300.669 200.961 300.858C201.286 301.044 201.666 301.137 202.1 301.137C202.382 301.137 202.638 301.097 202.87 301.017C203.102 300.935 203.303 300.812 203.472 300.65C203.641 300.487 203.77 300.287 203.86 300.048L205.267 300.302C205.154 300.716 204.952 301.079 204.66 301.39C204.372 301.699 204.009 301.939 203.571 302.111C203.137 302.28 202.642 302.365 202.085 302.365ZM210.575 294.574V295.767H206.404V294.574H210.575ZM207.523 292.745H209.009V299.968C209.009 300.257 209.052 300.474 209.138 300.62C209.225 300.762 209.336 300.86 209.471 300.913C209.611 300.963 209.761 300.988 209.924 300.988C210.043 300.988 210.148 300.979 210.237 300.963C210.327 300.946 210.396 300.933 210.446 300.923L210.714 302.151C210.628 302.184 210.506 302.217 210.346 302.25C210.187 302.287 209.989 302.307 209.75 302.31C209.359 302.317 208.994 302.247 208.656 302.101C208.318 301.955 208.045 301.73 207.836 301.425C207.627 301.12 207.523 300.737 207.523 300.277V292.745ZM218.783 302.36C218.167 302.36 217.617 302.202 217.133 301.887C216.652 301.569 216.274 301.117 215.999 300.53C215.727 299.94 215.591 299.233 215.591 298.407C215.591 297.582 215.729 296.876 216.004 296.289C216.283 295.703 216.664 295.254 217.148 294.942C217.631 294.631 218.18 294.475 218.793 294.475C219.267 294.475 219.648 294.554 219.937 294.713C220.228 294.869 220.454 295.052 220.613 295.26C220.775 295.469 220.901 295.653 220.991 295.812H221.08V292.029H222.567V302.211H221.115V301.022H220.991C220.901 301.185 220.772 301.37 220.603 301.579C220.437 301.788 220.208 301.97 219.917 302.126C219.625 302.282 219.247 302.36 218.783 302.36ZM219.111 301.092C219.539 301.092 219.9 300.979 220.195 300.754C220.493 300.525 220.719 300.209 220.871 299.804C221.027 299.4 221.105 298.929 221.105 298.392C221.105 297.862 221.029 297.398 220.876 297C220.724 296.603 220.5 296.293 220.205 296.071C219.91 295.849 219.546 295.738 219.111 295.738C218.664 295.738 218.291 295.854 217.993 296.086C217.694 296.318 217.469 296.634 217.317 297.035C217.167 297.436 217.093 297.889 217.093 298.392C217.093 298.903 217.169 299.362 217.322 299.77C217.474 300.177 217.699 300.5 217.998 300.739C218.299 300.974 218.671 301.092 219.111 301.092ZM227.979 302.365C227.227 302.365 226.579 302.204 226.036 301.882C225.495 301.558 225.078 301.102 224.783 300.515C224.491 299.925 224.345 299.234 224.345 298.442C224.345 297.66 224.491 296.971 224.783 296.374C225.078 295.777 225.489 295.312 226.016 294.977C226.546 294.642 227.166 294.475 227.875 294.475C228.306 294.475 228.724 294.546 229.128 294.689C229.532 294.831 229.895 295.055 230.217 295.36C230.538 295.665 230.792 296.061 230.977 296.548C231.163 297.032 231.256 297.62 231.256 298.313V298.84H225.185V297.726H229.799C229.799 297.335 229.72 296.989 229.56 296.687C229.401 296.382 229.178 296.142 228.889 295.966C228.604 295.791 228.269 295.703 227.885 295.703C227.467 295.703 227.103 295.806 226.791 296.011C226.483 296.213 226.244 296.478 226.075 296.806C225.91 297.131 225.827 297.484 225.827 297.865V298.735C225.827 299.246 225.916 299.68 226.095 300.038C226.278 300.396 226.531 300.669 226.856 300.858C227.181 301.044 227.56 301.137 227.994 301.137C228.276 301.137 228.533 301.097 228.765 301.017C228.997 300.935 229.197 300.812 229.367 300.65C229.536 300.487 229.665 300.287 229.754 300.048L231.161 300.302C231.049 300.716 230.846 301.079 230.555 301.39C230.266 301.699 229.903 301.939 229.466 302.111C229.032 302.28 228.536 302.365 227.979 302.365ZM240.244 294.574V295.767H235.929V294.574H240.244ZM237.112 302.211V293.689C237.112 293.212 237.217 292.816 237.425 292.501C237.634 292.183 237.911 291.946 238.256 291.79C238.6 291.631 238.975 291.552 239.379 291.552C239.678 291.552 239.933 291.576 240.145 291.626C240.357 291.672 240.514 291.716 240.617 291.755L240.269 292.958C240.2 292.939 240.11 292.915 240.001 292.889C239.891 292.859 239.759 292.844 239.603 292.844C239.242 292.844 238.983 292.934 238.827 293.113C238.675 293.292 238.599 293.55 238.599 293.888V302.211H237.112ZM243.768 302.38C243.284 302.38 242.847 302.29 242.455 302.111C242.064 301.929 241.754 301.665 241.526 301.321C241.3 300.976 241.188 300.553 241.188 300.053C241.188 299.622 241.271 299.267 241.436 298.989C241.602 298.711 241.826 298.49 242.107 298.328C242.389 298.165 242.704 298.043 243.052 297.96C243.4 297.877 243.755 297.814 244.116 297.771C244.573 297.718 244.945 297.675 245.23 297.642C245.515 297.605 245.722 297.547 245.851 297.468C245.98 297.388 246.045 297.259 246.045 297.08V297.045C246.045 296.611 245.922 296.275 245.677 296.036C245.435 295.797 245.074 295.678 244.593 295.678C244.093 295.678 243.698 295.789 243.41 296.011C243.125 296.23 242.928 296.473 242.818 296.742L241.421 296.424C241.587 295.96 241.829 295.585 242.147 295.3C242.469 295.012 242.838 294.803 243.256 294.674C243.674 294.541 244.113 294.475 244.573 294.475C244.878 294.475 245.201 294.511 245.543 294.584C245.888 294.654 246.209 294.783 246.507 294.972C246.809 295.161 247.056 295.431 247.248 295.782C247.44 296.13 247.536 296.583 247.536 297.14V302.211H246.085V301.167H246.025C245.929 301.359 245.785 301.548 245.593 301.733C245.4 301.919 245.153 302.073 244.852 302.196C244.55 302.318 244.189 302.38 243.768 302.38ZM244.091 301.186C244.502 301.186 244.853 301.105 245.145 300.943C245.44 300.78 245.664 300.568 245.816 300.306C245.972 300.041 246.05 299.758 246.05 299.456V298.472C245.997 298.525 245.894 298.575 245.742 298.621C245.593 298.664 245.422 298.702 245.23 298.735C245.037 298.765 244.85 298.793 244.668 298.82C244.486 298.843 244.333 298.863 244.21 298.88C243.922 298.916 243.659 298.977 243.42 299.064C243.185 299.15 242.996 299.274 242.853 299.436C242.714 299.596 242.644 299.808 242.644 300.073C242.644 300.441 242.78 300.719 243.052 300.908C243.324 301.094 243.67 301.186 244.091 301.186ZM249.516 302.211V294.574H251.003V302.211H249.516ZM250.267 293.396C250.009 293.396 249.787 293.31 249.601 293.137C249.419 292.962 249.327 292.753 249.327 292.511C249.327 292.266 249.419 292.057 249.601 291.885C249.787 291.709 250.009 291.621 250.267 291.621C250.526 291.621 250.746 291.709 250.928 291.885C251.114 292.057 251.207 292.266 251.207 292.511C251.207 292.753 251.114 292.962 250.928 293.137C250.746 293.31 250.526 293.396 250.267 293.396ZM253.003 302.211V294.574H254.439V295.787H254.519C254.658 295.376 254.904 295.053 255.255 294.818C255.609 294.579 256.011 294.46 256.458 294.46C256.551 294.46 256.66 294.463 256.786 294.47C256.915 294.476 257.016 294.485 257.089 294.495V295.917C257.03 295.9 256.924 295.882 256.771 295.862C256.619 295.839 256.466 295.827 256.314 295.827C255.962 295.827 255.649 295.902 255.374 296.051C255.102 296.197 254.887 296.4 254.728 296.662C254.569 296.921 254.489 297.216 254.489 297.547V302.211H253.003ZM261.394 302.365C260.641 302.365 259.993 302.204 259.45 301.882C258.909 301.558 258.492 301.102 258.197 300.515C257.905 299.925 257.759 299.234 257.759 298.442C257.759 297.66 257.905 296.971 258.197 296.374C258.492 295.777 258.903 295.312 259.43 294.977C259.96 294.642 260.58 294.475 261.289 294.475C261.72 294.475 262.138 294.546 262.542 294.689C262.946 294.831 263.309 295.055 263.631 295.36C263.952 295.665 264.206 296.061 264.391 296.548C264.577 297.032 264.67 297.62 264.67 298.313V298.84H258.599V297.726H263.213C263.213 297.335 263.134 296.989 262.974 296.687C262.815 296.382 262.592 296.142 262.303 295.966C262.018 295.791 261.684 295.703 261.299 295.703C260.881 295.703 260.517 295.806 260.205 296.011C259.897 296.213 259.658 296.478 259.489 296.806C259.324 297.131 259.241 297.484 259.241 297.865V298.735C259.241 299.246 259.33 299.68 259.509 300.038C259.692 300.396 259.945 300.669 260.27 300.858C260.595 301.044 260.974 301.137 261.408 301.137C261.69 301.137 261.947 301.097 262.179 301.017C262.411 300.935 262.612 300.812 262.781 300.65C262.95 300.487 263.079 300.287 263.168 300.048L264.575 300.302C264.463 300.716 264.26 301.079 263.969 301.39C263.68 301.699 263.318 301.939 262.88 302.111C262.446 302.28 261.95 302.365 261.394 302.365ZM272.883 302.36C272.266 302.36 271.716 302.202 271.232 301.887C270.752 301.569 270.374 301.117 270.099 300.53C269.827 299.94 269.691 299.233 269.691 298.407C269.691 297.582 269.829 296.876 270.104 296.289C270.382 295.703 270.763 295.254 271.247 294.942C271.731 294.631 272.28 294.475 272.893 294.475C273.367 294.475 273.748 294.554 274.036 294.713C274.328 294.869 274.553 295.052 274.712 295.26C274.875 295.469 275.001 295.653 275.09 295.812H275.18V292.029H276.666V302.211H275.215V301.022H275.09C275.001 301.185 274.871 301.37 274.702 301.579C274.537 301.788 274.308 301.97 274.016 302.126C273.725 302.282 273.347 302.36 272.883 302.36ZM273.211 301.092C273.639 301.092 274 300.979 274.295 300.754C274.593 300.525 274.818 300.209 274.971 299.804C275.127 299.4 275.205 298.929 275.205 298.392C275.205 297.862 275.128 297.398 274.976 297C274.823 296.603 274.6 296.293 274.305 296.071C274.01 295.849 273.645 295.738 273.211 295.738C272.764 295.738 272.391 295.854 272.092 296.086C271.794 296.318 271.569 296.634 271.416 297.035C271.267 297.436 271.193 297.889 271.193 298.392C271.193 298.903 271.269 299.362 271.421 299.77C271.574 300.177 271.799 300.5 272.097 300.739C272.399 300.974 272.77 301.092 273.211 301.092ZM282.079 302.365C281.327 302.365 280.679 302.204 280.135 301.882C279.595 301.558 279.177 301.102 278.882 300.515C278.591 299.925 278.445 299.234 278.445 298.442C278.445 297.66 278.591 296.971 278.882 296.374C279.177 295.777 279.588 295.312 280.115 294.977C280.646 294.642 281.265 294.475 281.975 294.475C282.406 294.475 282.823 294.546 283.227 294.689C283.632 294.831 283.995 295.055 284.316 295.36C284.638 295.665 284.891 296.061 285.077 296.548C285.263 297.032 285.355 297.62 285.355 298.313V298.84H279.285V297.726H283.899C283.899 297.335 283.819 296.989 283.66 296.687C283.501 296.382 283.277 296.142 282.989 295.966C282.704 295.791 282.369 295.703 281.985 295.703C281.567 295.703 281.202 295.806 280.891 296.011C280.583 296.213 280.344 296.478 280.175 296.806C280.009 297.131 279.926 297.484 279.926 297.865V298.735C279.926 299.246 280.016 299.68 280.195 300.038C280.377 300.396 280.631 300.669 280.955 300.858C281.28 301.044 281.66 301.137 282.094 301.137C282.376 301.137 282.633 301.097 282.865 301.017C283.097 300.935 283.297 300.812 283.466 300.65C283.635 300.487 283.764 300.287 283.854 300.048L285.261 300.302C285.148 300.716 284.946 301.079 284.654 301.39C284.366 301.699 284.003 301.939 283.566 302.111C283.131 302.28 282.636 302.365 282.079 302.365ZM292.727 296.439L291.38 296.677C291.323 296.505 291.234 296.341 291.111 296.185C290.992 296.029 290.829 295.902 290.624 295.802C290.418 295.703 290.162 295.653 289.853 295.653C289.432 295.653 289.081 295.748 288.799 295.936C288.518 296.122 288.377 296.362 288.377 296.657C288.377 296.913 288.471 297.118 288.66 297.274C288.849 297.43 289.154 297.557 289.575 297.657L290.788 297.935C291.491 298.097 292.014 298.348 292.359 298.686C292.704 299.024 292.876 299.463 292.876 300.003C292.876 300.461 292.744 300.868 292.478 301.226C292.217 301.581 291.85 301.859 291.38 302.061C290.912 302.264 290.37 302.365 289.754 302.365C288.899 302.365 288.201 302.182 287.661 301.818C287.121 301.45 286.789 300.928 286.667 300.252L288.103 300.033C288.193 300.408 288.377 300.691 288.655 300.883C288.934 301.072 289.297 301.167 289.744 301.167C290.231 301.167 290.621 301.065 290.912 300.863C291.204 300.658 291.35 300.408 291.35 300.113C291.35 299.874 291.26 299.673 291.081 299.511C290.906 299.349 290.636 299.226 290.271 299.143L288.978 298.86C288.266 298.697 287.739 298.439 287.397 298.084C287.059 297.73 286.89 297.28 286.89 296.737C286.89 296.286 287.016 295.892 287.268 295.554C287.52 295.216 287.868 294.952 288.312 294.763C288.756 294.571 289.265 294.475 289.838 294.475C290.664 294.475 291.313 294.654 291.787 295.012C292.261 295.366 292.575 295.842 292.727 296.439ZM81.9881 318.211V310.574H83.4248V311.787H83.5044C83.6436 311.376 83.8889 311.053 84.2402 310.818C84.5948 310.579 84.9959 310.46 85.4433 310.46C85.5361 310.46 85.6455 310.463 85.7714 310.47C85.9007 310.476 86.0018 310.485 86.0747 310.495V311.917C86.015 311.9 85.909 311.882 85.7565 311.862C85.6041 311.839 85.4516 311.827 85.2991 311.827C84.9478 311.827 84.6346 311.902 84.3595 312.051C84.0877 312.197 83.8723 312.4 83.7132 312.662C83.5541 312.921 83.4746 313.216 83.4746 313.547V318.211H81.9881ZM90.3789 318.365C89.6265 318.365 88.9785 318.204 88.435 317.882C87.8947 317.558 87.4771 317.102 87.1821 316.515C86.8905 315.925 86.7446 315.234 86.7446 314.442C86.7446 313.66 86.8905 312.971 87.1821 312.374C87.4771 311.777 87.8881 311.312 88.4151 310.977C88.9454 310.642 89.5652 310.475 90.2745 310.475C90.7053 310.475 91.1229 310.546 91.5273 310.689C91.9317 310.831 92.2946 311.055 92.6161 311.36C92.9376 311.665 93.1911 312.061 93.3767 312.548C93.5623 313.032 93.6551 313.62 93.6551 314.313V314.84H87.5848V313.726H92.1985C92.1985 313.335 92.1189 312.989 91.9598 312.687C91.8007 312.382 91.577 312.142 91.2887 311.966C91.0036 311.791 90.6689 311.703 90.2844 311.703C89.8668 311.703 89.5022 311.806 89.1907 312.011C88.8824 312.213 88.6438 312.478 88.4747 312.806C88.309 313.131 88.2262 313.484 88.2262 313.865V314.735C88.2262 315.246 88.3157 315.68 88.4946 316.038C88.6769 316.396 88.9305 316.669 89.2553 316.858C89.5801 317.044 89.9596 317.137 90.3938 317.137C90.6755 317.137 90.9324 317.097 91.1644 317.017C91.3964 316.935 91.5969 316.812 91.7659 316.65C91.935 316.487 92.0642 316.287 92.1537 316.048L93.5607 316.302C93.448 316.716 93.2458 317.079 92.9541 317.39C92.6658 317.699 92.3029 317.939 91.8654 318.111C91.4312 318.28 90.9357 318.365 90.3789 318.365ZM96.791 313.677V318.211H95.3045V310.574H96.7313V311.817H96.8258C97.0014 311.413 97.2765 311.088 97.6511 310.843C98.0289 310.597 98.5045 310.475 99.0779 310.475C99.5983 310.475 100.054 310.584 100.445 310.803C100.836 311.018 101.139 311.34 101.355 311.767C101.57 312.195 101.678 312.724 101.678 313.353V318.211H100.192V313.532C100.192 312.979 100.047 312.546 99.759 312.235C99.4707 311.92 99.0746 311.762 98.5708 311.762C98.2261 311.762 97.9195 311.837 97.6511 311.986C97.3859 312.135 97.1754 312.354 97.0197 312.642C96.8672 312.927 96.791 313.272 96.791 313.677ZM106.888 318.365C106.149 318.365 105.513 318.197 104.979 317.863C104.449 317.525 104.041 317.059 103.756 316.466C103.471 315.872 103.329 315.193 103.329 314.427C103.329 313.652 103.474 312.967 103.766 312.374C104.058 311.777 104.469 311.312 104.999 310.977C105.529 310.642 106.154 310.475 106.873 310.475C107.453 310.475 107.97 310.583 108.424 310.798C108.879 311.01 109.245 311.308 109.523 311.693C109.805 312.077 109.972 312.526 110.025 313.04H108.579C108.499 312.682 108.317 312.374 108.032 312.115C107.75 311.857 107.372 311.728 106.898 311.728C106.484 311.728 106.121 311.837 105.809 312.056C105.501 312.271 105.261 312.579 105.089 312.98C104.916 313.378 104.83 313.849 104.83 314.392C104.83 314.949 104.915 315.43 105.084 315.834C105.253 316.239 105.491 316.552 105.799 316.774C106.111 316.996 106.477 317.107 106.898 317.107C107.18 317.107 107.435 317.056 107.664 316.953C107.896 316.847 108.09 316.696 108.246 316.5C108.405 316.305 108.516 316.07 108.579 315.794H110.025C109.972 316.288 109.812 316.729 109.543 317.117C109.275 317.505 108.915 317.81 108.464 318.032C108.017 318.254 107.491 318.365 106.888 318.365ZM114.832 318.365C114.116 318.365 113.491 318.201 112.957 317.873C112.424 317.544 112.009 317.085 111.714 316.495C111.419 315.905 111.272 315.216 111.272 314.427C111.272 313.635 111.419 312.942 111.714 312.349C112.009 311.756 112.424 311.295 112.957 310.967C113.491 310.639 114.116 310.475 114.832 310.475C115.548 310.475 116.172 310.639 116.706 310.967C117.24 311.295 117.654 311.756 117.949 312.349C118.244 312.942 118.391 313.635 118.391 314.427C118.391 315.216 118.244 315.905 117.949 316.495C117.654 317.085 117.24 317.544 116.706 317.873C116.172 318.201 115.548 318.365 114.832 318.365ZM114.837 317.117C115.301 317.117 115.685 316.994 115.99 316.749C116.295 316.504 116.52 316.177 116.666 315.77C116.815 315.362 116.89 314.913 116.89 314.422C116.89 313.935 116.815 313.488 116.666 313.08C116.52 312.669 116.295 312.339 115.99 312.091C115.685 311.842 115.301 311.718 114.837 311.718C114.369 311.718 113.981 311.842 113.673 312.091C113.368 312.339 113.141 312.669 112.992 313.08C112.846 313.488 112.773 313.935 112.773 314.422C112.773 314.913 112.846 315.362 112.992 315.77C113.141 316.177 113.368 316.504 113.673 316.749C113.981 316.994 114.369 317.117 114.837 317.117ZM121.537 313.677V318.211H120.051V310.574H121.477V311.817H121.572C121.748 311.413 122.023 311.088 122.397 310.843C122.775 310.597 123.251 310.475 123.824 310.475C124.344 310.475 124.8 310.584 125.191 310.803C125.582 311.018 125.886 311.34 126.101 311.767C126.316 312.195 126.424 312.724 126.424 313.353V318.211H124.938V313.532C124.938 312.979 124.793 312.546 124.505 312.235C124.217 311.92 123.821 311.762 123.317 311.762C122.972 311.762 122.666 311.837 122.397 311.986C122.132 312.135 121.922 312.354 121.766 312.642C121.613 312.927 121.537 313.272 121.537 313.677ZM131.982 310.574V311.767H127.811V310.574H131.982ZM128.93 308.745H130.416V315.968C130.416 316.257 130.459 316.474 130.546 316.62C130.632 316.762 130.743 316.86 130.879 316.913C131.018 316.963 131.169 316.988 131.331 316.988C131.45 316.988 131.555 316.979 131.644 316.963C131.734 316.946 131.803 316.933 131.853 316.923L132.122 318.151C132.035 318.184 131.913 318.217 131.754 318.25C131.595 318.287 131.396 318.307 131.157 318.31C130.766 318.317 130.401 318.247 130.063 318.101C129.725 317.955 129.452 317.73 129.243 317.425C129.034 317.12 128.93 316.737 128.93 316.277V308.745ZM133.627 318.211V310.574H135.064V311.787H135.143C135.282 311.376 135.528 311.053 135.879 310.818C136.234 310.579 136.635 310.46 137.082 310.46C137.175 310.46 137.284 310.463 137.41 310.47C137.539 310.476 137.64 310.485 137.713 310.495V311.917C137.654 311.9 137.548 311.882 137.395 311.862C137.243 311.839 137.09 311.827 136.938 311.827C136.586 311.827 136.273 311.902 135.998 312.051C135.726 312.197 135.511 312.4 135.352 312.662C135.193 312.921 135.113 313.216 135.113 313.547V318.211H133.627ZM142.018 318.365C141.265 318.365 140.617 318.204 140.074 317.882C139.533 317.558 139.116 317.102 138.821 316.515C138.529 315.925 138.383 315.234 138.383 314.442C138.383 313.66 138.529 312.971 138.821 312.374C139.116 311.777 139.527 311.312 140.054 310.977C140.584 310.642 141.204 310.475 141.913 310.475C142.344 310.475 142.762 310.546 143.166 310.689C143.57 310.831 143.933 311.055 144.255 311.36C144.576 311.665 144.83 312.061 145.015 312.548C145.201 313.032 145.294 313.62 145.294 314.313V314.84H139.223V313.726H143.837C143.837 313.335 143.758 312.989 143.598 312.687C143.439 312.382 143.216 312.142 142.927 311.966C142.642 311.791 142.308 311.703 141.923 311.703C141.505 311.703 141.141 311.806 140.829 312.011C140.521 312.213 140.282 312.478 140.113 312.806C139.948 313.131 139.865 313.484 139.865 313.865V314.735C139.865 315.246 139.954 315.68 140.133 316.038C140.316 316.396 140.569 316.669 140.894 316.858C141.219 317.044 141.598 317.137 142.032 317.137C142.314 317.137 142.571 317.097 142.803 317.017C143.035 316.935 143.236 316.812 143.405 316.65C143.574 316.487 143.703 316.287 143.792 316.048L145.199 316.302C145.087 316.716 144.884 317.079 144.593 317.39C144.304 317.699 143.942 317.939 143.504 318.111C143.07 318.28 142.574 318.365 142.018 318.365ZM152.665 312.439L151.318 312.677C151.262 312.505 151.172 312.341 151.05 312.185C150.93 312.029 150.768 311.902 150.562 311.802C150.357 311.703 150.1 311.653 149.792 311.653C149.371 311.653 149.02 311.748 148.738 311.936C148.456 312.122 148.315 312.362 148.315 312.657C148.315 312.913 148.41 313.118 148.599 313.274C148.788 313.43 149.093 313.557 149.513 313.657L150.727 313.935C151.429 314.097 151.953 314.348 152.298 314.686C152.642 315.024 152.815 315.463 152.815 316.003C152.815 316.461 152.682 316.868 152.417 317.226C152.155 317.581 151.789 317.859 151.318 318.061C150.851 318.264 150.309 318.365 149.692 318.365C148.837 318.365 148.14 318.182 147.599 317.818C147.059 317.45 146.728 316.928 146.605 316.252L148.042 316.033C148.131 316.408 148.315 316.691 148.594 316.883C148.872 317.072 149.235 317.167 149.682 317.167C150.17 317.167 150.559 317.065 150.851 316.863C151.142 316.658 151.288 316.408 151.288 316.113C151.288 315.874 151.199 315.673 151.02 315.511C150.844 315.349 150.574 315.226 150.209 315.143L148.917 314.86C148.204 314.697 147.677 314.439 147.336 314.084C146.998 313.73 146.829 313.28 146.829 312.737C146.829 312.286 146.955 311.892 147.207 311.554C147.459 311.216 147.807 310.952 148.251 310.763C148.695 310.571 149.204 310.475 149.777 310.475C150.602 310.475 151.252 310.654 151.726 311.012C152.2 311.366 152.513 311.842 152.665 312.439ZM160.376 318.38C159.892 318.38 159.455 318.29 159.064 318.111C158.673 317.929 158.363 317.665 158.134 317.321C157.909 316.976 157.796 316.553 157.796 316.053C157.796 315.622 157.879 315.267 158.045 314.989C158.21 314.711 158.434 314.49 158.716 314.328C158.998 314.165 159.312 314.043 159.66 313.96C160.008 313.877 160.363 313.814 160.724 313.771C161.182 313.718 161.553 313.675 161.838 313.642C162.123 313.605 162.33 313.547 162.459 313.468C162.589 313.388 162.653 313.259 162.653 313.08V313.045C162.653 312.611 162.531 312.275 162.285 312.036C162.044 311.797 161.682 311.678 161.202 311.678C160.701 311.678 160.307 311.789 160.018 312.011C159.733 312.23 159.536 312.473 159.427 312.742L158.03 312.424C158.196 311.96 158.437 311.585 158.756 311.3C159.077 311.012 159.447 310.803 159.864 310.674C160.282 310.541 160.721 310.475 161.182 310.475C161.487 310.475 161.81 310.511 162.151 310.584C162.496 310.654 162.817 310.783 163.116 310.972C163.417 311.161 163.664 311.431 163.856 311.782C164.049 312.13 164.145 312.583 164.145 313.14V318.211H162.693V317.167H162.633C162.537 317.359 162.393 317.548 162.201 317.733C162.009 317.919 161.762 318.073 161.46 318.196C161.159 318.318 160.797 318.38 160.376 318.38ZM160.7 317.186C161.111 317.186 161.462 317.105 161.754 316.943C162.048 316.78 162.272 316.568 162.425 316.306C162.58 316.041 162.658 315.758 162.658 315.456V314.472C162.605 314.525 162.503 314.575 162.35 314.621C162.201 314.664 162.03 314.702 161.838 314.735C161.646 314.765 161.459 314.793 161.276 314.82C161.094 314.843 160.941 314.863 160.819 314.88C160.53 314.916 160.267 314.977 160.028 315.064C159.793 315.15 159.604 315.274 159.462 315.436C159.322 315.596 159.253 315.808 159.253 316.073C159.253 316.441 159.389 316.719 159.66 316.908C159.932 317.094 160.279 317.186 160.7 317.186ZM170.962 315.044V310.574H172.454V318.211H170.992V316.888H170.912C170.737 317.296 170.455 317.636 170.067 317.907C169.683 318.176 169.204 318.31 168.63 318.31C168.14 318.31 167.706 318.202 167.328 317.987C166.953 317.768 166.658 317.445 166.443 317.017C166.231 316.59 166.125 316.061 166.125 315.431V310.574H167.611V315.253C167.611 315.773 167.755 316.187 168.044 316.495C168.332 316.804 168.707 316.958 169.167 316.958C169.446 316.958 169.723 316.888 169.998 316.749C170.276 316.61 170.506 316.399 170.689 316.118C170.874 315.836 170.965 315.478 170.962 315.044ZM178.016 310.574V311.767H173.844V310.574H178.016ZM174.963 308.745H176.45V315.968C176.45 316.257 176.493 316.474 176.579 316.62C176.665 316.762 176.776 316.86 176.912 316.913C177.051 316.963 177.202 316.988 177.364 316.988C177.484 316.988 177.588 316.979 177.678 316.963C177.767 316.946 177.837 316.933 177.886 316.923L178.155 318.151C178.069 318.184 177.946 318.217 177.787 318.25C177.628 318.287 177.429 318.307 177.19 318.31C176.799 318.317 176.435 318.247 176.097 318.101C175.758 317.955 175.485 317.73 175.276 317.425C175.067 317.12 174.963 316.737 174.963 316.277V308.745ZM182.795 318.365C182.079 318.365 181.454 318.201 180.92 317.873C180.387 317.544 179.972 317.085 179.677 316.495C179.382 315.905 179.235 315.216 179.235 314.427C179.235 313.635 179.382 312.942 179.677 312.349C179.972 311.756 180.387 311.295 180.92 310.967C181.454 310.639 182.079 310.475 182.795 310.475C183.51 310.475 184.135 310.639 184.669 310.967C185.202 311.295 185.617 311.756 185.912 312.349C186.207 312.942 186.354 313.635 186.354 314.427C186.354 315.216 186.207 315.905 185.912 316.495C185.617 317.085 185.202 317.544 184.669 317.873C184.135 318.201 183.51 318.365 182.795 318.365ZM182.799 317.117C183.264 317.117 183.648 316.994 183.953 316.749C184.258 316.504 184.483 316.177 184.629 315.77C184.778 315.362 184.853 314.913 184.853 314.422C184.853 313.935 184.778 313.488 184.629 313.08C184.483 312.669 184.258 312.339 183.953 312.091C183.648 311.842 183.264 311.718 182.799 311.718C182.332 311.718 181.944 311.842 181.636 312.091C181.331 312.339 181.104 312.669 180.955 313.08C180.809 313.488 180.736 313.935 180.736 314.422C180.736 314.913 180.809 315.362 180.955 315.77C181.104 316.177 181.331 316.504 181.636 316.749C181.944 316.994 182.332 317.117 182.799 317.117ZM192.851 315.044V310.574H194.342V318.211H192.881V316.888H192.801C192.625 317.296 192.344 317.636 191.956 317.907C191.571 318.176 191.093 318.31 190.519 318.31C190.029 318.31 189.594 318.202 189.217 317.987C188.842 317.768 188.547 317.445 188.332 317.017C188.12 316.59 188.013 316.061 188.013 315.431V310.574H189.5V315.253C189.5 315.773 189.644 316.187 189.932 316.495C190.221 316.804 190.595 316.958 191.056 316.958C191.334 316.958 191.611 316.888 191.886 316.749C192.165 316.61 192.395 316.399 192.577 316.118C192.763 315.836 192.854 315.478 192.851 315.044ZM196.34 318.211V310.574H197.776V311.787H197.856C197.995 311.376 198.24 311.053 198.592 310.818C198.946 310.579 199.347 310.46 199.795 310.46C199.888 310.46 199.997 310.463 200.123 310.47C200.252 310.476 200.353 310.485 200.426 310.495V311.917C200.367 311.9 200.261 311.882 200.108 311.862C199.956 311.839 199.803 311.827 199.651 311.827C199.299 311.827 198.986 311.902 198.711 312.051C198.439 312.197 198.224 312.4 198.065 312.662C197.906 312.921 197.826 313.216 197.826 313.547V318.211H196.34ZM208.276 318.36C207.66 318.36 207.11 318.202 206.626 317.887C206.145 317.569 205.767 317.117 205.492 316.53C205.221 315.94 205.085 315.233 205.085 314.407C205.085 313.582 205.222 312.876 205.497 312.289C205.776 311.703 206.157 311.254 206.641 310.942C207.125 310.631 207.673 310.475 208.286 310.475C208.76 310.475 209.141 310.554 209.43 310.713C209.721 310.869 209.947 311.052 210.106 311.26C210.268 311.469 210.394 311.653 210.484 311.812H210.573V308.029H212.06V318.211H210.608V317.022H210.484C210.394 317.185 210.265 317.37 210.096 317.579C209.93 317.788 209.702 317.97 209.41 318.126C209.118 318.282 208.74 318.36 208.276 318.36ZM208.605 317.092C209.032 317.092 209.393 316.979 209.688 316.754C209.987 316.525 210.212 316.209 210.364 315.804C210.52 315.4 210.598 314.929 210.598 314.392C210.598 313.862 210.522 313.398 210.369 313C210.217 312.603 209.993 312.293 209.698 312.071C209.403 311.849 209.039 311.738 208.605 311.738C208.157 311.738 207.784 311.854 207.486 312.086C207.188 312.318 206.962 312.634 206.81 313.035C206.661 313.436 206.586 313.889 206.586 314.392C206.586 314.903 206.662 315.362 206.815 315.77C206.967 316.177 207.193 316.5 207.491 316.739C207.793 316.974 208.164 317.092 208.605 317.092ZM215.459 308.029V308.983C215.459 309.265 215.406 309.562 215.3 309.873C215.197 310.181 215.051 310.478 214.863 310.763C214.674 311.048 214.452 311.293 214.196 311.499L213.461 310.972C213.656 310.687 213.825 310.384 213.968 310.062C214.113 309.741 214.186 309.386 214.186 308.998V308.029H215.459ZM218.4 318.38C217.916 318.38 217.478 318.29 217.087 318.111C216.696 317.929 216.386 317.665 216.158 317.321C215.932 316.976 215.82 316.553 215.82 316.053C215.82 315.622 215.902 315.267 216.068 314.989C216.234 314.711 216.458 314.49 216.739 314.328C217.021 314.165 217.336 314.043 217.684 313.96C218.032 313.877 218.387 313.814 218.748 313.771C219.205 313.718 219.576 313.675 219.861 313.642C220.146 313.605 220.354 313.547 220.483 313.468C220.612 313.388 220.677 313.259 220.677 313.08V313.045C220.677 312.611 220.554 312.275 220.309 312.036C220.067 311.797 219.706 311.678 219.225 311.678C218.725 311.678 218.33 311.789 218.042 312.011C217.757 312.23 217.56 312.473 217.45 312.742L216.053 312.424C216.219 311.96 216.461 311.585 216.779 311.3C217.101 311.012 217.47 310.803 217.888 310.674C218.305 310.541 218.745 310.475 219.205 310.475C219.51 310.475 219.833 310.511 220.175 310.584C220.519 310.654 220.841 310.783 221.139 310.972C221.441 311.161 221.688 311.431 221.88 311.782C222.072 312.13 222.168 312.583 222.168 313.14V318.211H220.717V317.167H220.657C220.561 317.359 220.417 317.548 220.224 317.733C220.032 317.919 219.785 318.073 219.484 318.196C219.182 318.318 218.821 318.38 218.4 318.38ZM218.723 317.186C219.134 317.186 219.485 317.105 219.777 316.943C220.072 316.78 220.296 316.568 220.448 316.306C220.604 316.041 220.682 315.758 220.682 315.456V314.472C220.629 314.525 220.526 314.575 220.374 314.621C220.224 314.664 220.054 314.702 219.861 314.735C219.669 314.765 219.482 314.793 219.3 314.82C219.117 314.843 218.965 314.863 218.842 314.88C218.554 314.916 218.29 314.977 218.052 315.064C217.816 315.15 217.628 315.274 217.485 315.436C217.346 315.596 217.276 315.808 217.276 316.073C217.276 316.441 217.412 316.719 217.684 316.908C217.956 317.094 218.302 317.186 218.723 317.186ZM227.365 318.365C226.626 318.365 225.989 318.197 225.456 317.863C224.925 317.525 224.518 317.059 224.233 316.466C223.948 315.872 223.805 315.193 223.805 314.427C223.805 313.652 223.951 312.967 224.243 312.374C224.534 311.777 224.945 311.312 225.476 310.977C226.006 310.642 226.631 310.475 227.35 310.475C227.93 310.475 228.447 310.583 228.901 310.798C229.355 311.01 229.721 311.308 230 311.693C230.282 312.077 230.449 312.526 230.502 313.04H229.055C228.976 312.682 228.793 312.374 228.508 312.115C228.227 311.857 227.849 311.728 227.375 311.728C226.96 311.728 226.598 311.837 226.286 312.056C225.978 312.271 225.737 312.579 225.565 312.98C225.393 313.378 225.307 313.849 225.307 314.392C225.307 314.949 225.391 315.43 225.56 315.834C225.729 316.239 225.968 316.552 226.276 316.774C226.588 316.996 226.954 317.107 227.375 317.107C227.657 317.107 227.912 317.056 228.14 316.953C228.372 316.847 228.566 316.696 228.722 316.5C228.881 316.305 228.992 316.07 229.055 315.794H230.502C230.449 316.288 230.288 316.729 230.02 317.117C229.751 317.505 229.392 317.81 228.941 318.032C228.493 318.254 227.968 318.365 227.365 318.365ZM235.656 310.574V311.767H231.485V310.574H235.656ZM232.604 308.745H234.09V315.968C234.09 316.257 234.133 316.474 234.219 316.62C234.306 316.762 234.417 316.86 234.553 316.913C234.692 316.963 234.843 316.988 235.005 316.988C235.124 316.988 235.229 316.979 235.318 316.963C235.408 316.946 235.477 316.933 235.527 316.923L235.795 318.151C235.709 318.184 235.587 318.217 235.428 318.25C235.268 318.287 235.07 318.307 234.831 318.31C234.44 318.317 234.075 318.247 233.737 318.101C233.399 317.955 233.126 317.73 232.917 317.425C232.708 317.12 232.604 316.737 232.604 316.277V308.745ZM237.301 318.211V310.574H238.787V318.211H237.301ZM238.051 309.396C237.793 309.396 237.571 309.31 237.385 309.137C237.203 308.962 237.112 308.753 237.112 308.511C237.112 308.266 237.203 308.057 237.385 307.885C237.571 307.709 237.793 307.621 238.051 307.621C238.31 307.621 238.53 307.709 238.712 307.885C238.898 308.057 238.991 308.266 238.991 308.511C238.991 308.753 238.898 308.962 238.712 309.137C238.53 309.31 238.31 309.396 238.051 309.396ZM247.32 310.574L244.55 318.211H242.959L240.185 310.574H241.781L243.715 316.451H243.795L245.724 310.574H247.32ZM248.717 318.211V310.574H250.203V318.211H248.717ZM249.467 309.396C249.209 309.396 248.987 309.31 248.801 309.137C248.619 308.962 248.528 308.753 248.528 308.511C248.528 308.266 248.619 308.057 248.801 307.885C248.987 307.709 249.209 307.621 249.467 307.621C249.726 307.621 249.946 307.709 250.129 307.885C250.314 308.057 250.407 308.266 250.407 308.511C250.407 308.753 250.314 308.962 250.129 309.137C249.946 309.31 249.726 309.396 249.467 309.396ZM255.768 310.574V311.767H251.596V310.574H255.768ZM252.715 308.745H254.201V315.968C254.201 316.257 254.245 316.474 254.331 316.62C254.417 316.762 254.528 316.86 254.664 316.913C254.803 316.963 254.954 316.988 255.116 316.988C255.236 316.988 255.34 316.979 255.429 316.963C255.519 316.946 255.589 316.933 255.638 316.923L255.907 318.151C255.821 318.184 255.698 318.217 255.539 318.25C255.38 318.287 255.181 318.307 254.942 318.31C254.551 318.317 254.187 318.247 253.848 318.101C253.51 317.955 253.237 317.73 253.028 317.425C252.819 317.12 252.715 316.737 252.715 316.277V308.745ZM260.621 318.365C259.869 318.365 259.221 318.204 258.677 317.882C258.137 317.558 257.719 317.102 257.424 316.515C257.133 315.925 256.987 315.234 256.987 314.442C256.987 313.66 257.133 312.971 257.424 312.374C257.719 311.777 258.13 311.312 258.657 310.977C259.188 310.642 259.807 310.475 260.517 310.475C260.948 310.475 261.365 310.546 261.769 310.689C262.174 310.831 262.537 311.055 262.858 311.36C263.18 311.665 263.433 312.061 263.619 312.548C263.805 313.032 263.897 313.62 263.897 314.313V314.84H257.827V313.726H262.441C262.441 313.335 262.361 312.989 262.202 312.687C262.043 312.382 261.819 312.142 261.531 311.966C261.246 311.791 260.911 311.703 260.527 311.703C260.109 311.703 259.744 311.806 259.433 312.011C259.125 312.213 258.886 312.478 258.717 312.806C258.551 313.131 258.468 313.484 258.468 313.865V314.735C258.468 315.246 258.558 315.68 258.737 316.038C258.919 316.396 259.173 316.669 259.497 316.858C259.822 317.044 260.202 317.137 260.636 317.137C260.918 317.137 261.175 317.097 261.407 317.017C261.639 316.935 261.839 316.812 262.008 316.65C262.177 316.487 262.306 316.287 262.396 316.048L263.803 316.302C263.69 316.716 263.488 317.079 263.196 317.39C262.908 317.699 262.545 317.939 262.108 318.111C261.673 318.28 261.178 318.365 260.621 318.365ZM259.845 309.555L261.009 307.263H262.575L261.034 309.555H259.845ZM271.269 312.439L269.922 312.677C269.865 312.505 269.776 312.341 269.653 312.185C269.534 312.029 269.371 311.902 269.166 311.802C268.96 311.703 268.704 311.653 268.395 311.653C267.974 311.653 267.623 311.748 267.341 311.936C267.06 312.122 266.919 312.362 266.919 312.657C266.919 312.913 267.013 313.118 267.202 313.274C267.391 313.43 267.696 313.557 268.117 313.657L269.33 313.935C270.033 314.097 270.556 314.348 270.901 314.686C271.246 315.024 271.418 315.463 271.418 316.003C271.418 316.461 271.286 316.868 271.02 317.226C270.759 317.581 270.392 317.859 269.922 318.061C269.454 318.264 268.912 318.365 268.296 318.365C267.441 318.365 266.743 318.182 266.203 317.818C265.663 317.45 265.331 316.928 265.209 316.252L266.645 316.033C266.735 316.408 266.919 316.691 267.197 316.883C267.476 317.072 267.839 317.167 268.286 317.167C268.773 317.167 269.163 317.065 269.454 316.863C269.746 316.658 269.892 316.408 269.892 316.113C269.892 315.874 269.802 315.673 269.623 315.511C269.448 315.349 269.178 315.226 268.813 315.143L267.52 314.86C266.808 314.697 266.281 314.439 265.939 314.084C265.601 313.73 265.432 313.28 265.432 312.737C265.432 312.286 265.558 311.892 265.81 311.554C266.062 311.216 266.41 310.952 266.854 310.763C267.298 310.571 267.807 310.475 268.38 310.475C269.206 310.475 269.855 310.654 270.329 311.012C270.803 311.366 271.116 311.842 271.269 312.439ZM281.913 321.074V317.022H281.824C281.734 317.185 281.605 317.37 281.436 317.579C281.27 317.788 281.041 317.97 280.75 318.126C280.458 318.282 280.08 318.36 279.616 318.36C279 318.36 278.45 318.202 277.966 317.887C277.485 317.569 277.107 317.117 276.832 316.53C276.56 315.94 276.424 315.233 276.424 314.407C276.424 313.582 276.562 312.876 276.837 312.289C277.116 311.703 277.497 311.254 277.981 310.942C278.465 310.631 279.013 310.475 279.626 310.475C280.1 310.475 280.481 310.554 280.77 310.713C281.061 310.869 281.287 311.052 281.446 311.26C281.608 311.469 281.734 311.653 281.824 311.812H281.948V310.574H283.4V321.074H281.913ZM279.944 317.092C280.372 317.092 280.733 316.979 281.028 316.754C281.326 316.525 281.552 316.209 281.704 315.804C281.86 315.4 281.938 314.929 281.938 314.392C281.938 313.862 281.862 313.398 281.709 313C281.557 312.603 281.333 312.293 281.038 312.071C280.743 311.849 280.379 311.738 279.944 311.738C279.497 311.738 279.124 311.854 278.826 312.086C278.527 312.318 278.302 312.634 278.15 313.035C278 313.436 277.926 313.889 277.926 314.392C277.926 314.903 278.002 315.362 278.155 315.77C278.307 316.177 278.532 316.5 278.831 316.739C279.132 316.974 279.504 317.092 279.944 317.092ZM290.236 315.044V310.574H291.727V318.211H290.265V316.888H290.186C290.01 317.296 289.728 317.636 289.341 317.907C288.956 318.176 288.477 318.31 287.904 318.31C287.413 318.31 286.979 318.202 286.601 317.987C286.227 317.768 285.932 317.445 285.716 317.017C285.504 316.59 285.398 316.061 285.398 315.431V310.574H286.885V315.253C286.885 315.773 287.029 316.187 287.317 316.495C287.606 316.804 287.98 316.958 288.441 316.958C288.719 316.958 288.996 316.888 289.271 316.749C289.549 316.61 289.78 316.399 289.962 316.118C290.148 315.836 290.239 315.478 290.236 315.044ZM293.724 318.211V310.574H295.211V318.211H293.724ZM294.475 309.396C294.217 309.396 293.995 309.31 293.809 309.137C293.627 308.962 293.535 308.753 293.535 308.511C293.535 308.266 293.627 308.057 293.809 307.885C293.995 307.709 294.217 307.621 294.475 307.621C294.734 307.621 294.954 307.709 295.136 307.885C295.322 308.057 295.415 308.266 295.415 308.511C295.415 308.753 295.322 308.962 295.136 309.137C294.954 309.31 294.734 309.396 294.475 309.396ZM102.089 326.574V327.767H97.9177V326.574H102.089ZM99.0363 324.745H100.523V331.968C100.523 332.257 100.566 332.474 100.652 332.62C100.738 332.762 100.849 332.86 100.985 332.913C101.124 332.963 101.275 332.988 101.438 332.988C101.557 332.988 101.661 332.979 101.751 332.963C101.84 332.946 101.91 332.933 101.96 332.923L102.228 334.151C102.142 334.184 102.019 334.217 101.86 334.25C101.701 334.287 101.502 334.307 101.264 334.31C100.872 334.317 100.508 334.247 100.17 334.101C99.8317 333.955 99.5583 333.73 99.3495 333.425C99.1407 333.12 99.0363 332.737 99.0363 332.277V324.745ZM106.942 334.365C106.19 334.365 105.542 334.204 104.998 333.882C104.458 333.558 104.041 333.102 103.746 332.515C103.454 331.925 103.308 331.234 103.308 330.442C103.308 329.66 103.454 328.971 103.746 328.374C104.041 327.777 104.452 327.312 104.979 326.977C105.509 326.642 106.129 326.475 106.838 326.475C107.269 326.475 107.686 326.546 108.091 326.689C108.495 326.831 108.858 327.055 109.18 327.36C109.501 327.665 109.755 328.061 109.94 328.548C110.126 329.032 110.219 329.62 110.219 330.313V330.84H104.148V329.726H108.762C108.762 329.335 108.682 328.989 108.523 328.687C108.364 328.382 108.14 328.142 107.852 327.966C107.567 327.791 107.232 327.703 106.848 327.703C106.43 327.703 106.066 327.806 105.754 328.011C105.446 328.213 105.207 328.478 105.038 328.806C104.872 329.131 104.79 329.484 104.79 329.865V330.735C104.79 331.246 104.879 331.68 105.058 332.038C105.24 332.396 105.494 332.669 105.819 332.858C106.144 333.044 106.523 333.137 106.957 333.137C107.239 333.137 107.496 333.097 107.728 333.017C107.96 332.935 108.16 332.812 108.329 332.65C108.498 332.487 108.628 332.287 108.717 332.048L110.124 332.302C110.011 332.716 109.809 333.079 109.518 333.39C109.229 333.699 108.866 333.939 108.429 334.111C107.995 334.28 107.499 334.365 106.942 334.365ZM118.79 334.365C118.051 334.365 117.414 334.197 116.881 333.863C116.35 333.525 115.943 333.059 115.658 332.466C115.372 331.872 115.23 331.193 115.23 330.427C115.23 329.652 115.376 328.967 115.667 328.374C115.959 327.777 116.37 327.312 116.9 326.977C117.431 326.642 118.056 326.475 118.775 326.475C119.355 326.475 119.872 326.583 120.326 326.798C120.78 327.01 121.146 327.308 121.425 327.693C121.706 328.077 121.874 328.526 121.927 329.04H120.48C120.4 328.682 120.218 328.374 119.933 328.115C119.651 327.857 119.274 327.728 118.8 327.728C118.385 327.728 118.022 327.837 117.711 328.056C117.403 328.271 117.162 328.579 116.99 328.98C116.818 329.378 116.731 329.849 116.731 330.392C116.731 330.949 116.816 331.43 116.985 331.834C117.154 332.239 117.393 332.552 117.701 332.774C118.012 332.996 118.379 333.107 118.8 333.107C119.081 333.107 119.337 333.056 119.565 332.953C119.797 332.847 119.991 332.696 120.147 332.5C120.306 332.305 120.417 332.07 120.48 331.794H121.927C121.874 332.288 121.713 332.729 121.444 333.117C121.176 333.505 120.816 333.81 120.366 334.032C119.918 334.254 119.393 334.365 118.79 334.365ZM126.733 334.365C126.017 334.365 125.392 334.201 124.859 333.873C124.325 333.544 123.911 333.085 123.616 332.495C123.321 331.905 123.173 331.216 123.173 330.427C123.173 329.635 123.321 328.942 123.616 328.349C123.911 327.756 124.325 327.295 124.859 326.967C125.392 326.639 126.017 326.475 126.733 326.475C127.449 326.475 128.074 326.639 128.607 326.967C129.141 327.295 129.555 327.756 129.85 328.349C130.145 328.942 130.293 329.635 130.293 330.427C130.293 331.216 130.145 331.905 129.85 332.495C129.555 333.085 129.141 333.544 128.607 333.873C128.074 334.201 127.449 334.365 126.733 334.365ZM126.738 333.117C127.202 333.117 127.586 332.994 127.891 332.749C128.196 332.504 128.422 332.177 128.568 331.77C128.717 331.362 128.791 330.913 128.791 330.422C128.791 329.935 128.717 329.488 128.568 329.08C128.422 328.669 128.196 328.339 127.891 328.091C127.586 327.842 127.202 327.718 126.738 327.718C126.271 327.718 125.883 327.842 125.575 328.091C125.27 328.339 125.043 328.669 124.894 329.08C124.748 329.488 124.675 329.935 124.675 330.422C124.675 330.913 124.748 331.362 124.894 331.77C125.043 332.177 125.27 332.504 125.575 332.749C125.883 332.994 126.271 333.117 126.738 333.117ZM131.952 334.211V326.574H133.389V327.787H133.468C133.607 327.376 133.853 327.053 134.204 326.818C134.559 326.579 134.96 326.46 135.407 326.46C135.5 326.46 135.609 326.463 135.735 326.47C135.865 326.476 135.966 326.485 136.039 326.495V327.917C135.979 327.9 135.873 327.882 135.72 327.862C135.568 327.839 135.415 327.827 135.263 327.827C134.912 327.827 134.598 327.902 134.323 328.051C134.052 328.197 133.836 328.4 133.677 328.662C133.518 328.921 133.438 329.216 133.438 329.547V334.211H131.952ZM137.325 334.211V326.574H138.762V327.787H138.841C138.981 327.376 139.226 327.053 139.577 326.818C139.932 326.579 140.333 326.46 140.78 326.46C140.873 326.46 140.982 326.463 141.108 326.47C141.238 326.476 141.339 326.485 141.412 326.495V327.917C141.352 327.9 141.246 327.882 141.093 327.862C140.941 327.839 140.789 327.827 140.636 327.827C140.285 327.827 139.972 327.902 139.696 328.051C139.425 328.197 139.209 328.4 139.05 328.662C138.891 328.921 138.811 329.216 138.811 329.547V334.211H137.325ZM145.716 334.365C144.963 334.365 144.315 334.204 143.772 333.882C143.232 333.558 142.814 333.102 142.519 332.515C142.227 331.925 142.082 331.234 142.082 330.442C142.082 329.66 142.227 328.971 142.519 328.374C142.814 327.777 143.225 327.312 143.752 326.977C144.282 326.642 144.902 326.475 145.611 326.475C146.042 326.475 146.46 326.546 146.864 326.689C147.269 326.831 147.631 327.055 147.953 327.36C148.274 327.665 148.528 328.061 148.714 328.548C148.899 329.032 148.992 329.62 148.992 330.313V330.84H142.922V329.726H147.535C147.535 329.335 147.456 328.989 147.297 328.687C147.138 328.382 146.914 328.142 146.626 327.966C146.341 327.791 146.006 327.703 145.621 327.703C145.204 327.703 144.839 327.806 144.528 328.011C144.219 328.213 143.981 328.478 143.812 328.806C143.646 329.131 143.563 329.484 143.563 329.865V330.735C143.563 331.246 143.653 331.68 143.832 332.038C144.014 332.396 144.267 332.669 144.592 332.858C144.917 333.044 145.297 333.137 145.731 333.137C146.012 333.137 146.269 333.097 146.501 333.017C146.733 332.935 146.934 332.812 147.103 332.65C147.272 332.487 147.401 332.287 147.491 332.048L148.898 332.302C148.785 332.716 148.583 333.079 148.291 333.39C148.003 333.699 147.64 333.939 147.202 334.111C146.768 334.28 146.273 334.365 145.716 334.365ZM156.364 328.439L155.016 328.677C154.96 328.505 154.871 328.341 154.748 328.185C154.629 328.029 154.466 327.902 154.261 327.802C154.055 327.703 153.798 327.653 153.49 327.653C153.069 327.653 152.718 327.748 152.436 327.936C152.154 328.122 152.014 328.362 152.014 328.657C152.014 328.913 152.108 329.118 152.297 329.274C152.486 329.43 152.791 329.557 153.212 329.657L154.425 329.935C155.127 330.097 155.651 330.348 155.996 330.686C156.34 331.024 156.513 331.463 156.513 332.003C156.513 332.461 156.38 332.868 156.115 333.226C155.853 333.581 155.487 333.859 155.016 334.061C154.549 334.264 154.007 334.365 153.391 334.365C152.536 334.365 151.838 334.182 151.298 333.818C150.757 333.45 150.426 332.928 150.303 332.252L151.74 332.033C151.83 332.408 152.014 332.691 152.292 332.883C152.57 333.072 152.933 333.167 153.381 333.167C153.868 333.167 154.257 333.065 154.549 332.863C154.841 332.658 154.987 332.408 154.987 332.113C154.987 331.874 154.897 331.673 154.718 331.511C154.542 331.349 154.272 331.226 153.908 331.143L152.615 330.86C151.903 330.697 151.376 330.439 151.034 330.084C150.696 329.73 150.527 329.28 150.527 328.737C150.527 328.286 150.653 327.892 150.905 327.554C151.157 327.216 151.505 326.952 151.949 326.763C152.393 326.571 152.902 326.475 153.475 326.475C154.3 326.475 154.95 326.654 155.424 327.012C155.898 327.366 156.211 327.842 156.364 328.439ZM158.147 337.074V326.574H159.599V327.812H159.723C159.809 327.653 159.934 327.469 160.096 327.26C160.259 327.052 160.484 326.869 160.772 326.713C161.061 326.554 161.442 326.475 161.916 326.475C162.532 326.475 163.082 326.631 163.566 326.942C164.05 327.254 164.43 327.703 164.705 328.289C164.983 328.876 165.122 329.582 165.122 330.407C165.122 331.233 164.985 331.94 164.71 332.53C164.435 333.117 164.057 333.569 163.576 333.887C163.096 334.202 162.547 334.36 161.931 334.36C161.467 334.36 161.087 334.282 160.792 334.126C160.5 333.97 160.272 333.788 160.106 333.579C159.94 333.37 159.813 333.185 159.723 333.022H159.634V337.074H158.147ZM159.604 330.392C159.604 330.929 159.682 331.4 159.838 331.804C159.993 332.209 160.219 332.525 160.514 332.754C160.809 332.979 161.17 333.092 161.598 333.092C162.042 333.092 162.413 332.974 162.711 332.739C163.009 332.5 163.235 332.177 163.387 331.77C163.543 331.362 163.621 330.903 163.621 330.392C163.621 329.889 163.545 329.436 163.392 329.035C163.243 328.634 163.018 328.318 162.716 328.086C162.418 327.854 162.045 327.738 161.598 327.738C161.167 327.738 160.802 327.849 160.504 328.071C160.209 328.293 159.985 328.603 159.833 329C159.68 329.398 159.604 329.862 159.604 330.392ZM170.004 334.365C169.289 334.365 168.664 334.201 168.13 333.873C167.597 333.544 167.182 333.085 166.887 332.495C166.592 331.905 166.445 331.216 166.445 330.427C166.445 329.635 166.592 328.942 166.887 328.349C167.182 327.756 167.597 327.295 168.13 326.967C168.664 326.639 169.289 326.475 170.004 326.475C170.72 326.475 171.345 326.639 171.879 326.967C172.412 327.295 172.827 327.756 173.122 328.349C173.417 328.942 173.564 329.635 173.564 330.427C173.564 331.216 173.417 331.905 173.122 332.495C172.827 333.085 172.412 333.544 171.879 333.873C171.345 334.201 170.72 334.365 170.004 334.365ZM170.009 333.117C170.473 333.117 170.858 332.994 171.163 332.749C171.468 332.504 171.693 332.177 171.839 331.77C171.988 331.362 172.063 330.913 172.063 330.422C172.063 329.935 171.988 329.488 171.839 329.08C171.693 328.669 171.468 328.339 171.163 328.091C170.858 327.842 170.473 327.718 170.009 327.718C169.542 327.718 169.154 327.842 168.846 328.091C168.541 328.339 168.314 328.669 168.165 329.08C168.019 329.488 167.946 329.935 167.946 330.422C167.946 330.913 168.019 331.362 168.165 331.77C168.314 332.177 168.541 332.504 168.846 332.749C169.154 332.994 169.542 333.117 170.009 333.117ZM176.71 329.677V334.211H175.223V326.574H176.65V327.817H176.745C176.92 327.413 177.195 327.088 177.57 326.843C177.948 326.597 178.423 326.475 178.997 326.475C179.517 326.475 179.973 326.584 180.364 326.803C180.755 327.018 181.058 327.34 181.274 327.767C181.489 328.195 181.597 328.724 181.597 329.353V334.211H180.11V329.532C180.11 328.979 179.966 328.546 179.678 328.235C179.39 327.92 178.994 327.762 178.49 327.762C178.145 327.762 177.838 327.837 177.57 327.986C177.305 328.135 177.094 328.354 176.939 328.642C176.786 328.927 176.71 329.272 176.71 329.677ZM186.449 334.36C185.833 334.36 185.283 334.202 184.799 333.887C184.318 333.569 183.94 333.117 183.665 332.53C183.393 331.94 183.258 331.233 183.258 330.407C183.258 329.582 183.395 328.876 183.67 328.289C183.949 327.703 184.33 327.254 184.814 326.942C185.298 326.631 185.846 326.475 186.459 326.475C186.933 326.475 187.314 326.554 187.603 326.713C187.894 326.869 188.12 327.052 188.279 327.26C188.441 327.469 188.567 327.653 188.657 327.812H188.746V324.029H190.233V334.211H188.781V333.022H188.657C188.567 333.185 188.438 333.37 188.269 333.579C188.103 333.788 187.874 333.97 187.583 334.126C187.291 334.282 186.913 334.36 186.449 334.36ZM186.777 333.092C187.205 333.092 187.566 332.979 187.861 332.754C188.159 332.525 188.385 332.209 188.537 331.804C188.693 331.4 188.771 330.929 188.771 330.392C188.771 329.862 188.695 329.398 188.542 329C188.39 328.603 188.166 328.293 187.871 328.071C187.576 327.849 187.212 327.738 186.777 327.738C186.33 327.738 185.957 327.854 185.659 328.086C185.36 328.318 185.135 328.634 184.983 329.035C184.833 329.436 184.759 329.889 184.759 330.392C184.759 330.903 184.835 331.362 184.988 331.77C185.14 332.177 185.365 332.5 185.664 332.739C185.965 332.974 186.337 333.092 186.777 333.092ZM195.645 334.365C194.893 334.365 194.245 334.204 193.702 333.882C193.161 333.558 192.744 333.102 192.449 332.515C192.157 331.925 192.011 331.234 192.011 330.442C192.011 329.66 192.157 328.971 192.449 328.374C192.744 327.777 193.155 327.312 193.682 326.977C194.212 326.642 194.832 326.475 195.541 326.475C195.972 326.475 196.39 326.546 196.794 326.689C197.198 326.831 197.561 327.055 197.883 327.36C198.204 327.665 198.458 328.061 198.643 328.548C198.829 329.032 198.922 329.62 198.922 330.313V330.84H192.851V329.726H197.465C197.465 329.335 197.386 328.989 197.226 328.687C197.067 328.382 196.844 328.142 196.555 327.966C196.27 327.791 195.935 327.703 195.551 327.703C195.133 327.703 194.769 327.806 194.457 328.011C194.149 328.213 193.91 328.478 193.741 328.806C193.576 329.131 193.493 329.484 193.493 329.865V330.735C193.493 331.246 193.582 331.68 193.761 332.038C193.944 332.396 194.197 332.669 194.522 332.858C194.847 333.044 195.226 333.137 195.66 333.137C195.942 333.137 196.199 333.097 196.431 333.017C196.663 332.935 196.864 332.812 197.033 332.65C197.202 332.487 197.331 332.287 197.42 332.048L198.827 332.302C198.715 332.716 198.512 333.079 198.221 333.39C197.932 333.699 197.569 333.939 197.132 334.111C196.698 334.28 196.202 334.365 195.645 334.365ZM202.058 329.677V334.211H200.571V326.574H201.998V327.817H202.092C202.268 327.413 202.543 327.088 202.918 326.843C203.295 326.597 203.771 326.475 204.345 326.475C204.865 326.475 205.321 326.584 205.712 326.803C206.103 327.018 206.406 327.34 206.621 327.767C206.837 328.195 206.945 328.724 206.945 329.353V334.211H205.458V329.532C205.458 328.979 205.314 328.546 205.026 328.235C204.737 327.92 204.341 327.762 203.837 327.762C203.493 327.762 203.186 327.837 202.918 327.986C202.653 328.135 202.442 328.354 202.286 328.642C202.134 328.927 202.058 329.272 202.058 329.677ZM212.503 326.574V327.767H208.332V326.574H212.503ZM209.45 324.745H210.937V331.968C210.937 332.257 210.98 332.474 211.066 332.62C211.152 332.762 211.263 332.86 211.399 332.913C211.538 332.963 211.689 332.988 211.852 332.988C211.971 332.988 212.075 332.979 212.165 332.963C212.254 332.946 212.324 332.933 212.374 332.923L212.642 334.151C212.556 334.184 212.433 334.217 212.274 334.25C212.115 334.287 211.916 334.307 211.678 334.31C211.287 334.317 210.922 334.247 210.584 334.101C210.246 333.955 209.972 333.73 209.764 333.425C209.555 333.12 209.45 332.737 209.45 332.277V324.745ZM224.385 326.574L221.616 334.211H220.025L217.251 326.574H218.847L220.781 332.451H220.86L222.789 326.574H224.385ZM225.782 334.211V326.574H227.219V327.787H227.298C227.438 327.376 227.683 327.053 228.034 326.818C228.389 326.579 228.79 326.46 229.237 326.46C229.33 326.46 229.439 326.463 229.565 326.47C229.695 326.476 229.796 326.485 229.869 326.495V327.917C229.809 327.9 229.703 327.882 229.55 327.862C229.398 327.839 229.246 327.827 229.093 327.827C228.742 327.827 228.429 327.902 228.153 328.051C227.882 328.197 227.666 328.4 227.507 328.662C227.348 328.921 227.269 329.216 227.269 329.547V334.211H225.782ZM233.309 334.38C232.825 334.38 232.388 334.29 231.996 334.111C231.605 333.929 231.295 333.665 231.067 333.321C230.841 332.976 230.729 332.553 230.729 332.053C230.729 331.622 230.812 331.267 230.977 330.989C231.143 330.711 231.367 330.49 231.648 330.328C231.93 330.165 232.245 330.043 232.593 329.96C232.941 329.877 233.296 329.814 233.657 329.771C234.114 329.718 234.486 329.675 234.771 329.642C235.056 329.605 235.263 329.547 235.392 329.468C235.521 329.388 235.586 329.259 235.586 329.08V329.045C235.586 328.611 235.463 328.275 235.218 328.036C234.976 327.797 234.615 327.678 234.134 327.678C233.634 327.678 233.239 327.789 232.951 328.011C232.666 328.23 232.469 328.473 232.359 328.742L230.962 328.424C231.128 327.96 231.37 327.585 231.688 327.3C232.01 327.012 232.379 326.803 232.797 326.674C233.215 326.541 233.654 326.475 234.114 326.475C234.419 326.475 234.742 326.511 235.084 326.584C235.429 326.654 235.75 326.783 236.048 326.972C236.35 327.161 236.597 327.431 236.789 327.782C236.981 328.13 237.077 328.583 237.077 329.14V334.211H235.626V333.167H235.566C235.47 333.359 235.326 333.548 235.134 333.733C234.941 333.919 234.694 334.073 234.393 334.196C234.091 334.318 233.73 334.38 233.309 334.38ZM233.632 333.186C234.043 333.186 234.394 333.105 234.686 332.943C234.981 332.78 235.205 332.568 235.357 332.306C235.513 332.041 235.591 331.758 235.591 331.456V330.472C235.538 330.525 235.435 330.575 235.283 330.621C235.134 330.664 234.963 330.702 234.771 330.735C234.578 330.765 234.391 330.793 234.209 330.82C234.027 330.843 233.874 330.863 233.751 330.88C233.463 330.916 233.2 330.977 232.961 331.064C232.726 331.15 232.537 331.274 232.394 331.436C232.255 331.596 232.185 331.808 232.185 332.073C232.185 332.441 232.321 332.719 232.593 332.908C232.865 333.094 233.211 333.186 233.632 333.186ZM239.057 334.211V326.574H240.544V334.211H239.057ZM239.808 325.396C239.55 325.396 239.328 325.31 239.142 325.137C238.96 324.962 238.868 324.753 238.868 324.511C238.868 324.266 238.96 324.057 239.142 323.885C239.328 323.709 239.55 323.621 239.808 323.621C240.067 323.621 240.287 323.709 240.469 323.885C240.655 324.057 240.748 324.266 240.748 324.511C240.748 324.753 240.655 324.962 240.469 325.137C240.287 325.31 240.067 325.396 239.808 325.396ZM242.544 334.211V326.574H243.971V327.817H244.065C244.224 327.396 244.484 327.068 244.846 326.833C245.207 326.594 245.639 326.475 246.143 326.475C246.654 326.475 247.081 326.594 247.426 326.833C247.774 327.071 248.031 327.4 248.196 327.817H248.276C248.458 327.409 248.748 327.085 249.146 326.843C249.544 326.597 250.018 326.475 250.568 326.475C251.261 326.475 251.826 326.692 252.263 327.126C252.704 327.56 252.924 328.215 252.924 329.09V334.211H251.438V329.229C251.438 328.712 251.297 328.337 251.015 328.105C250.734 327.873 250.397 327.757 250.006 327.757C249.522 327.757 249.146 327.907 248.878 328.205C248.609 328.5 248.475 328.879 248.475 329.343V334.211H246.993V329.135C246.993 328.72 246.864 328.387 246.606 328.135C246.347 327.883 246.011 327.757 245.596 327.757C245.315 327.757 245.054 327.832 244.816 327.981C244.58 328.127 244.39 328.331 244.244 328.593C244.101 328.855 244.03 329.158 244.03 329.503V334.211H242.544ZM258.208 334.365C257.456 334.365 256.808 334.204 256.264 333.882C255.724 333.558 255.306 333.102 255.011 332.515C254.72 331.925 254.574 331.234 254.574 330.442C254.574 329.66 254.72 328.971 255.011 328.374C255.306 327.777 255.717 327.312 256.244 326.977C256.774 326.642 257.394 326.475 258.104 326.475C258.534 326.475 258.952 326.546 259.356 326.689C259.761 326.831 260.124 327.055 260.445 327.36C260.767 327.665 261.02 328.061 261.206 328.548C261.391 329.032 261.484 329.62 261.484 330.313V330.84H255.414V329.726H260.028C260.028 329.335 259.948 328.989 259.789 328.687C259.63 328.382 259.406 328.142 259.118 327.966C258.833 327.791 258.498 327.703 258.114 327.703C257.696 327.703 257.331 327.806 257.02 328.011C256.712 328.213 256.473 328.478 256.304 328.806C256.138 329.131 256.055 329.484 256.055 329.865V330.735C256.055 331.246 256.145 331.68 256.324 332.038C256.506 332.396 256.76 332.669 257.084 332.858C257.409 333.044 257.789 333.137 258.223 333.137C258.505 333.137 258.761 333.097 258.993 333.017C259.225 332.935 259.426 332.812 259.595 332.65C259.764 332.487 259.893 332.287 259.983 332.048L261.39 332.302C261.277 332.716 261.075 333.079 260.783 333.39C260.495 333.699 260.132 333.939 259.694 334.111C259.26 334.28 258.765 334.365 258.208 334.365ZM264.62 329.677V334.211H263.134V326.574H264.56V327.817H264.655C264.831 327.413 265.106 327.088 265.48 326.843C265.858 326.597 266.334 326.475 266.907 326.475C267.427 326.475 267.883 326.584 268.274 326.803C268.665 327.018 268.969 327.34 269.184 327.767C269.399 328.195 269.507 328.724 269.507 329.353V334.211H268.021V329.532C268.021 328.979 267.876 328.546 267.588 328.235C267.3 327.92 266.904 327.762 266.4 327.762C266.055 327.762 265.749 327.837 265.48 327.986C265.215 328.135 265.005 328.354 264.849 328.642C264.696 328.927 264.62 329.272 264.62 329.677ZM275.065 326.574V327.767H270.894V326.574H275.065ZM272.013 324.745H273.499V331.968C273.499 332.257 273.542 332.474 273.629 332.62C273.715 332.762 273.826 332.86 273.962 332.913C274.101 332.963 274.252 332.988 274.414 332.988C274.533 332.988 274.638 332.979 274.727 332.963C274.817 332.946 274.886 332.933 274.936 332.923L275.205 334.151C275.118 334.184 274.996 334.217 274.837 334.25C274.678 334.287 274.479 334.307 274.24 334.31C273.849 334.317 273.484 334.247 273.146 334.101C272.808 333.955 272.535 333.73 272.326 333.425C272.117 333.12 272.013 332.737 272.013 332.277V324.745ZM277.689 334.305C277.417 334.305 277.184 334.209 276.988 334.017C276.793 333.821 276.695 333.586 276.695 333.311C276.695 333.039 276.793 332.807 276.988 332.615C277.184 332.419 277.417 332.321 277.689 332.321C277.961 332.321 278.195 332.419 278.39 332.615C278.586 332.807 278.683 333.039 278.683 333.311C278.683 333.493 278.637 333.66 278.544 333.813C278.455 333.962 278.335 334.081 278.186 334.171C278.037 334.26 277.871 334.305 277.689 334.305Z" fill="#0C221F"/>
<path d="M305.222 50.867L305.427 55.4461C305.462 56.2159 306.001 56.8628 306.751 57.0388L311.216 58.0814L307.351 60.5488C306.702 60.9644 306.409 61.7568 306.634 62.49L307.965 66.8777L303.895 64.7661C303.211 64.4118 302.379 64.5573 301.853 65.1145L298.72 68.4596L298.515 63.8805C298.48 63.1107 297.941 62.4638 297.19 62.2877L292.726 61.2451L296.59 58.7777C297.24 58.3622 297.532 57.5697 297.308 56.8365L295.977 52.4488L300.046 54.5605C300.731 54.9147 301.563 54.7692 302.088 54.2121L305.222 50.867Z" fill="#8AAFD3"/>
<path d="M47.2222 111.916L47.4269 116.495C47.4621 117.265 48.0011 117.912 48.7515 118.088L53.2159 119.131L49.3513 121.598C48.7021 122.014 48.4092 122.806 48.6338 123.539L49.9646 127.927L45.8953 125.815C45.2108 125.461 44.3789 125.607 43.8532 126.164L40.7195 129.509L40.5148 124.93C40.4795 124.16 39.9405 123.513 39.1902 123.337L34.7258 122.294L38.5903 119.827C39.2396 119.411 39.5325 118.619 39.3078 117.886L37.9771 113.498L42.0464 115.61C42.7309 115.964 43.5627 115.819 44.0884 115.261L47.2222 111.916Z" fill="#8AAFD3"/>
<defs>
<filter id="filter0_f_63_1253" x="9.72748e-05" y="5.72205e-06" width="249.2" height="249.2" filterUnits="userSpaceOnUse" color-interpolation-filters="sRGB">
<feFlood flood-opacity="0" result="BackgroundImageFix"/>
<feBlend mode="normal" in="SourceGraphic" in2="BackgroundImageFix" result="shape"/>
<feGaussianBlur stdDeviation="8.05" result="effect1_foregroundBlur_63_1253"/>
</filter>
<filter id="filter1_f_63_1253" x="9.72748e-05" y="112" width="286.2" height="286.2" filterUnits="userSpaceOnUse" color-interpolation-filters="sRGB">
<feFlood flood-opacity="0" result="BackgroundImageFix"/>
<feBlend mode="normal" in="SourceGraphic" in2="BackgroundImageFix" result="shape"/>
<feGaussianBlur stdDeviation="8.05" result="effect1_foregroundBlur_63_1253"/>
</filter>
<filter id="filter2_f_63_1253" x="78.0001" y="68" width="299.2" height="299.2" filterUnits="userSpaceOnUse" color-interpolation-filters="sRGB">
<feFlood flood-opacity="0" result="BackgroundImageFix"/>
<feBlend mode="normal" in="SourceGraphic" in2="BackgroundImageFix" result="shape"/>
<feGaussianBlur stdDeviation="8.05" result="effect1_foregroundBlur_63_1253"/>
</filter>
<filter id="filter3_f_63_1253" x="91.0001" y="5.72205e-06" width="286.2" height="286.2" filterUnits="userSpaceOnUse" color-interpolation-filters="sRGB">
<feFlood flood-opacity="0" result="BackgroundImageFix"/>
<feBlend mode="normal" in="SourceGraphic" in2="BackgroundImageFix" result="shape"/>
<feGaussianBlur stdDeviation="8.05" result="effect1_foregroundBlur_63_1253"/>
</filter>
<filter id="filter4_f_63_1253" x="99.2445" y="63.8712" width="192.46" height="155.872" filterUnits="userSpaceOnUse" color-interpolation-filters="sRGB">
<feFlood flood-opacity="0" result="BackgroundImageFix"/>
<feBlend mode="normal" in="SourceGraphic" in2="BackgroundImageFix" result="shape"/>
<feGaussianBlur stdDeviation="1.39479" result="effect1_foregroundBlur_63_1253"/>
</filter>
<filter id="filter5_f_63_1253" x="84.3857" y="52.1374" width="219.5" height="174.861" filterUnits="userSpaceOnUse" color-interpolation-filters="sRGB">
<feFlood flood-opacity="0" result="BackgroundImageFix"/>
<feBlend mode="normal" in="SourceGraphic" in2="BackgroundImageFix" result="shape"/>
<feGaussianBlur stdDeviation="1.39479" result="effect1_foregroundBlur_63_1253"/>
</filter>
<clipPath id="clip0_63_1253">
<rect width="225" height="175.611" fill="white" transform="translate(76.1001 48.6)"/>
</clipPath>
</defs>
</svg>
