<svg width="20" height="24" viewBox="0 0 20 24" fill="none" xmlns="http://www.w3.org/2000/svg">
<path d="M16.6811 23.2207C13.6222 23.7576 8.1848 24.1589 5.0967 23.9383L3.74931 13.1964C2.75006 13.1485 1.31763 13.013 0.185504 12.633C-0.207817 12.5001 0.108434 11.3015 0.360904 10.956L5.75578 3.59987C6.64341 2.38802 7.98282 1.23729 9.1495 0.277906C10.3002 -0.670847 12.203 1.04594 12.9073 1.89105L17.9673 7.96626C18.8098 8.97614 19.4104 9.93818 19.6894 11.3653L16.5057 11.9048C17.3986 15.1523 17.9487 18.4344 18.0045 21.8787C18.0125 22.3677 17.1541 23.1383 16.6837 23.2234L16.6811 23.2207Z" fill="#BA274A"/>
</svg>
