<svg width="3" height="10" viewBox="0 0 3 10" fill="none" xmlns="http://www.w3.org/2000/svg">
<path d="M1.74826 9.95005C1.49551 10.1259 0.882335 9.8017 0.706513 9.53247C0.673546 9.48577 0.680139 9.48028 0.677941 9.44181C0.655963 8.79347 0.622995 7.84568 0.601017 7.22481C0.616402 6.41438 0.343881 5.42538 0.998817 4.90341C2.19221 4.89242 2.06693 6.33471 2.19221 7.62865C2.24495 8.37864 2.41858 9.40335 1.77463 9.93082L1.74826 9.95005Z" fill="#EDEDF4"/>
<path d="M2.06484 1.75786C1.96374 2.32928 1.71979 2.93092 1.19891 2.96938C0.108818 3.28257 -0.282386 1.64797 0.209915 0.658974C0.82749 -0.706392 2.43186 0.246892 2.07143 1.72764L2.06484 1.76061V1.75786Z" fill="#EDEDF4"/>
</svg>
