<svg width="12" height="10" viewBox="0 0 12 10" fill="none" xmlns="http://www.w3.org/2000/svg">
<path fill-rule="evenodd" clip-rule="evenodd" d="M7.95486 6.14159C8.1121 6.13392 8.33886 6.33291 8.5613 6.48632L10.076 7.5371C10.5592 7.87077 11.0427 8.71139 11.3572 9.26366C11.2881 9.4593 10.9769 9.85439 10.7967 9.95409C10.5971 10.0613 10.1483 9.96855 9.84548 9.8037H9.84939C8.70261 9.16317 6.74718 7.9244 7.39529 6.58984C7.46481 6.44775 7.79777 6.14927 7.95486 6.14159ZM0.422632 1.79589C1.24727 0.377007 3.01575 -0.209726 4.50759 0.0663986C6.19876 0.381043 7.5941 1.78493 7.62478 3.50683C7.65541 5.26707 6.50923 7.0576 4.71072 7.17284C2.99637 7.28023 1.24701 6.15317 0.410914 4.66894H0.407007C-0.172118 3.63725 -0.102799 2.70485 0.422632 1.79589Z" fill="#93939A"/>
</svg>
