<svg width="21" height="24" viewBox="0 0 21 24" fill="none" xmlns="http://www.w3.org/2000/svg">
<path fill-rule="evenodd" clip-rule="evenodd" d="M7.23308 13.4056C9.73563 12.4659 11.7726 12.8201 14.2048 13.638C17.2436 14.6592 19.8324 16.3769 20.4743 19.8871C20.7125 21.1979 19.8323 22.5765 18.2858 22.7201L5.11199 23.9603C3.45987 24.1147 1.11722 23.8601 0.282886 22.3841C-0.613634 20.7915 0.84367 19.0848 1.56414 17.8226C2.89402 15.4962 4.86054 14.294 7.23308 13.4056ZM8.86003 0.0335471C9.52904 -0.101879 10.7266 0.190838 11.2331 0.586282C13.5487 2.39285 14.1153 4.83846 13.1511 7.75816C12.5769 9.49148 10.3071 11.4765 8.57097 10.0443C5.43466 7.45778 6.07603 0.602937 8.86003 0.0335471Z" fill="#EDEDF4"/>
</svg>
