<svg width="26" height="25" viewBox="0 0 26 25" fill="none" xmlns="http://www.w3.org/2000/svg">
<path d="M12.7553 0L14.715 5.20953C15.1683 6.40207 16.4724 7.0367 17.6929 6.63918L22.9861 4.9236L20.1338 9.70772C19.4782 10.8026 19.806 12.2253 20.866 12.9297L25.5106 15.9982L19.9943 16.7514C18.732 16.9257 17.8254 18.0625 17.937 19.3317L18.4321 24.876L14.4081 21.0334C13.4806 20.1547 12.03 20.1547 11.1025 21.0334L7.07855 24.876L7.57369 19.3317C7.68527 18.0625 6.77867 16.9257 5.51638 16.7514L0 15.9982L4.64464 12.9297C5.71165 12.2253 6.03246 10.8096 5.37691 9.70772L2.52457 4.9236L7.81778 6.63918C9.03125 7.02972 10.3424 6.40207 10.7957 5.20953L12.7553 0Z" fill="#BA274A"/>
</svg>
