<svg width="23" height="27" viewBox="0 0 23 27" fill="none" xmlns="http://www.w3.org/2000/svg">
<path d="M11.3326 0L13.8154 5.89297C14.2338 6.88327 15.252 7.46909 16.319 7.33658L22.6653 6.54155L18.8017 11.6395C18.1531 12.4973 18.1531 13.6759 18.8017 14.5267L22.6653 19.6246L16.319 18.8296C15.252 18.6971 14.2338 19.2899 13.8154 20.2732L11.3326 26.1662L8.8499 20.2732C8.43147 19.2829 7.41327 18.6971 6.34626 18.8296L0 19.6246L3.86354 14.5267C4.51212 13.6689 4.51212 12.4903 3.86354 11.6395L0 6.54155L6.34626 7.33658C7.41327 7.46909 8.43147 6.8763 8.8499 5.89297L11.3326 0Z" fill="#8AAFD3"/>
</svg>
