<svg width="10" height="12" viewBox="0 0 10 12" fill="none" xmlns="http://www.w3.org/2000/svg">
<g clip-path="url(#clip0_94_1561)">
<path d="M4.0167 9.8539C3.43493 9.66461 3.53514 8.91583 3.47112 8.47046L3.12039 6.11555C3.03966 5.5644 2.99513 5.00212 2.93945 4.40087C2.16005 3.94715 1.73695 3.1928 1.75365 2.38834C1.77035 1.44193 2.19067 0.65139 3.05915 0.23107C4.09742 -0.269973 5.32776 0.0612722 5.9318 1.01326C6.53583 1.96524 6.31037 3.26517 5.32498 4.00282C5.00208 4.2422 4.87961 4.55118 4.94085 4.94645C5.11899 6.09328 5.31941 8.70706 4.96311 9.51987C4.87126 9.72863 4.27557 9.9374 4.0167 9.85111V9.8539Z" fill="#BA274A"/>
<path d="M0.629037 10.8643C0.125209 10.4329 -0.111395 9.60616 0.0472691 9.13017C0.456455 7.90818 1.87608 7.84416 1.91505 8.18376C1.92618 8.2784 1.89835 8.46768 1.85103 8.55119C1.55318 9.0745 1.74247 9.41966 2.18227 9.70916C4.67636 11.3431 7.61303 9.99308 7.48777 9.43637C7.38478 8.98264 6.24073 8.95481 6.42166 8.10025C6.51909 7.63261 7.11755 7.45446 7.52952 7.68828L8.66522 8.33685C9.64783 8.89913 9.08276 10.3382 8.28109 10.9423C6.50795 12.2784 2.48847 12.451 0.629037 10.8616V10.8643Z" fill="#BA274A"/>
</g>
<defs>
<clipPath id="clip0_94_1561">
<rect width="9.18859" height="12" fill="white"/>
</clipPath>
</defs>
</svg>
